<svg width="263" height="60" viewBox="0 0 263 60" fill="none" xmlns="http://www.w3.org/2000/svg">
<path d="M45 3.61378C50.5689 3.5942 56.1123 4.33874 61.4632 5.82496C66.4343 7.22756 70.8824 9.22417 74.6858 11.7583C82.1424 16.7273 86.2482 23.2072 86.2482 29.9989C86.2482 36.7905 82.1424 43.2705 74.6858 48.2417C70.8824 50.7758 66.4343 52.7724 61.4632 54.1728C56.1126 55.6609 50.5691 56.4062 45 56.3862C39.4317 56.4063 33.8889 55.661 28.5392 54.1728C23.5657 52.7724 19.1176 50.7849 15.3142 48.2417C7.85759 43.2727 3.75176 36.7905 3.75176 29.9989C3.75176 23.2072 7.85759 16.7295 15.3142 11.7583C19.1176 9.22417 23.5657 7.22756 28.5392 5.82496C33.8892 4.33862 39.4319 3.59408 45 3.61378ZM45 0C20.1469 0 0 13.432 0 29.9989C0 46.5658 20.1469 60 45 60C69.8531 60 90 46.568 90 29.9989C90 13.4297 69.8531 0 45 0Z" fill="#2D9CDB"/>
<path d="M23.6028 18.7578L16.7019 12.0971L56.9395 12.0949L50.0293 18.7668H42.1881L42.1787 26.227L32.9752 35.0265L32.94 18.7668H23.6263" fill="#2D9CDB"/>
<path d="M52.2547 17.8814H73.2763L66.3848 24.5489L45.5109 24.5534L45.4992 41.2581L72.1648 41.2626L65.203 47.9142L43.1989 47.9187L36.162 41.2694L36.1901 33.441L52.2547 17.8814Z" fill="#2D9CDB"/>
<path d="M102.972 10.2031L100.757 23H98.1816L100.405 10.2031H102.972ZM106.786 10.2031L106.426 12.2686H96.292L96.6523 10.2031H106.786Z" fill="#2D9CDB"/>
<path d="M109.906 20.8555L110.574 16.5928C110.604 16.335 110.592 16.0947 110.539 15.8721C110.486 15.6494 110.378 15.4736 110.214 15.3447C110.056 15.21 109.83 15.1367 109.537 15.125C109.273 15.1191 109.036 15.166 108.825 15.2656C108.62 15.3594 108.45 15.4971 108.315 15.6787C108.181 15.8545 108.087 16.0654 108.034 16.3115L105.556 16.3291C105.585 15.8018 105.731 15.3477 105.995 14.9668C106.265 14.5801 106.604 14.2637 107.015 14.0176C107.425 13.7715 107.87 13.5898 108.351 13.4727C108.837 13.3555 109.312 13.3027 109.774 13.3145C110.437 13.3262 111.025 13.4639 111.541 13.7275C112.062 13.9912 112.461 14.3691 112.736 14.8613C113.018 15.3477 113.123 15.9395 113.053 16.6367L112.394 20.7148C112.341 21.0547 112.3 21.4121 112.271 21.7871C112.241 22.1562 112.294 22.5078 112.429 22.8418L112.411 23L109.985 23.0088C109.874 22.6631 109.818 22.3086 109.818 21.9453C109.824 21.5762 109.854 21.2129 109.906 20.8555ZM110.855 17.208L110.618 18.6406L109.361 18.6318C109.109 18.6377 108.857 18.6729 108.605 18.7373C108.359 18.7959 108.131 18.8896 107.92 19.0186C107.709 19.1416 107.533 19.3027 107.393 19.502C107.258 19.7012 107.173 19.9443 107.138 20.2314C107.108 20.4365 107.129 20.6211 107.199 20.7852C107.27 20.9434 107.378 21.0693 107.524 21.1631C107.677 21.2568 107.858 21.3066 108.069 21.3125C108.368 21.3184 108.661 21.2627 108.948 21.1455C109.235 21.0225 109.484 20.8496 109.695 20.627C109.906 20.4043 110.053 20.1465 110.135 19.8535L110.662 20.9521C110.521 21.2803 110.343 21.582 110.126 21.8574C109.915 22.1328 109.672 22.373 109.396 22.5781C109.121 22.7773 108.819 22.9297 108.491 23.0352C108.163 23.1465 107.812 23.1992 107.437 23.1934C106.915 23.1816 106.435 23.0586 105.995 22.8242C105.562 22.584 105.216 22.2588 104.958 21.8486C104.706 21.4326 104.592 20.9492 104.615 20.3984C104.639 19.7773 104.794 19.2617 105.081 18.8516C105.368 18.4355 105.737 18.1074 106.188 17.8672C106.646 17.627 107.141 17.457 107.674 17.3574C108.213 17.252 108.746 17.1992 109.273 17.1992L110.855 17.208Z" fill="#2D9CDB"/>
<path d="M117.395 13.4902L118.449 16.3643L120.471 13.4902H123.222L119.803 18.2539L121.728 23H119.214L118.027 19.959L115.909 23H113.141L116.709 18.0254L114.863 13.4902H117.395Z" fill="#2D9CDB"/>
<path d="M126.764 21.207C127.074 21.2129 127.35 21.1543 127.59 21.0312C127.836 20.9082 128.038 20.7354 128.196 20.5127C128.354 20.29 128.46 20.0322 128.513 19.7393L130.842 19.7305C130.789 20.4395 130.561 21.0547 130.156 21.5762C129.758 22.0977 129.251 22.499 128.636 22.7803C128.026 23.0615 127.379 23.1934 126.693 23.1758C126.008 23.1641 125.419 23.0264 124.927 22.7627C124.44 22.499 124.048 22.1475 123.749 21.708C123.45 21.2627 123.239 20.7559 123.116 20.1875C122.999 19.6191 122.97 19.0215 123.028 18.3945L123.055 18.1309C123.125 17.4746 123.283 16.8535 123.529 16.2676C123.775 15.6758 124.104 15.1572 124.514 14.7119C124.93 14.2607 125.419 13.9121 125.981 13.666C126.544 13.4141 127.18 13.2969 127.889 13.3145C128.621 13.3262 129.248 13.4932 129.77 13.8154C130.291 14.1318 130.687 14.5654 130.956 15.1162C131.231 15.667 131.363 16.2998 131.352 17.0146L129.031 17.0059C129.037 16.7188 128.999 16.4463 128.917 16.1885C128.835 15.9248 128.694 15.7139 128.495 15.5557C128.302 15.3916 128.038 15.3008 127.704 15.2832C127.312 15.2715 126.983 15.3535 126.72 15.5293C126.456 15.6992 126.242 15.9307 126.078 16.2236C125.914 16.5107 125.788 16.8242 125.7 17.1641C125.612 17.498 125.551 17.8232 125.516 18.1396L125.498 18.3945C125.469 18.6582 125.451 18.9512 125.445 19.2734C125.439 19.5898 125.472 19.8945 125.542 20.1875C125.612 20.4746 125.741 20.7148 125.929 20.9082C126.122 21.0957 126.4 21.1953 126.764 21.207Z" fill="#2D9CDB"/>
<path d="M137.082 20.8555L137.75 16.5928C137.779 16.335 137.768 16.0947 137.715 15.8721C137.662 15.6494 137.554 15.4736 137.39 15.3447C137.231 15.21 137.006 15.1367 136.713 15.125C136.449 15.1191 136.212 15.166 136.001 15.2656C135.796 15.3594 135.626 15.4971 135.491 15.6787C135.356 15.8545 135.263 16.0654 135.21 16.3115L132.731 16.3291C132.761 15.8018 132.907 15.3477 133.171 14.9668C133.44 14.5801 133.78 14.2637 134.19 14.0176C134.601 13.7715 135.046 13.5898 135.526 13.4727C136.013 13.3555 136.487 13.3027 136.95 13.3145C137.612 13.3262 138.201 13.4639 138.717 13.7275C139.238 13.9912 139.637 14.3691 139.912 14.8613C140.193 15.3477 140.299 15.9395 140.229 16.6367L139.569 20.7148C139.517 21.0547 139.476 21.4121 139.446 21.7871C139.417 22.1562 139.47 22.5078 139.604 22.8418L139.587 23L137.161 23.0088C137.05 22.6631 136.994 22.3086 136.994 21.9453C137 21.5762 137.029 21.2129 137.082 20.8555ZM138.031 17.208L137.794 18.6406L136.537 18.6318C136.285 18.6377 136.033 18.6729 135.781 18.7373C135.535 18.7959 135.307 18.8896 135.096 19.0186C134.885 19.1416 134.709 19.3027 134.568 19.502C134.434 19.7012 134.349 19.9443 134.313 20.2314C134.284 20.4365 134.305 20.6211 134.375 20.7852C134.445 20.9434 134.554 21.0693 134.7 21.1631C134.853 21.2568 135.034 21.3066 135.245 21.3125C135.544 21.3184 135.837 21.2627 136.124 21.1455C136.411 21.0225 136.66 20.8496 136.871 20.627C137.082 20.4043 137.229 20.1465 137.311 19.8535L137.838 20.9521C137.697 21.2803 137.519 21.582 137.302 21.8574C137.091 22.1328 136.848 22.373 136.572 22.5781C136.297 22.7773 135.995 22.9297 135.667 23.0352C135.339 23.1465 134.987 23.1992 134.612 23.1934C134.091 23.1816 133.61 23.0586 133.171 22.8242C132.737 22.584 132.392 22.2588 132.134 21.8486C131.882 21.4326 131.768 20.9492 131.791 20.3984C131.814 19.7773 131.97 19.2617 132.257 18.8516C132.544 18.4355 132.913 18.1074 133.364 17.8672C133.821 17.627 134.316 17.457 134.85 17.3574C135.389 17.252 135.922 17.1992 136.449 17.1992L138.031 17.208Z" fill="#2D9CDB"/>
<path d="M144.79 15.6963L143.524 23H141.055L142.707 13.4902H145.027L144.79 15.6963ZM147.893 13.4111L147.585 15.7754C147.444 15.752 147.301 15.7314 147.154 15.7139C147.014 15.6963 146.87 15.6846 146.724 15.6787C146.384 15.6729 146.076 15.7168 145.801 15.8105C145.525 15.9043 145.285 16.042 145.08 16.2236C144.881 16.3994 144.711 16.6162 144.57 16.874C144.436 17.1318 144.333 17.4219 144.263 17.7441L143.779 17.5859C143.838 17.1348 143.935 16.6602 144.069 16.1621C144.21 15.6582 144.403 15.1895 144.649 14.7559C144.901 14.3164 145.221 13.9619 145.607 13.6924C146 13.417 146.478 13.2822 147.04 13.2881C147.187 13.2881 147.327 13.2998 147.462 13.3232C147.603 13.3467 147.746 13.376 147.893 13.4111Z" fill="#2D9CDB"/>
<path d="M151.742 23.1758C151.092 23.1641 150.506 23.041 149.984 22.8066C149.463 22.5664 149.026 22.2383 148.675 21.8223C148.329 21.4062 148.074 20.9229 147.91 20.3721C147.746 19.8213 147.688 19.2295 147.734 18.5967L147.77 18.2363C147.84 17.5742 148.001 16.9443 148.253 16.3467C148.505 15.749 148.842 15.2217 149.264 14.7646C149.686 14.3018 150.184 13.9414 150.758 13.6836C151.338 13.4199 151.982 13.2969 152.691 13.3145C153.354 13.3262 153.919 13.4609 154.388 13.7188C154.856 13.9766 155.234 14.3223 155.521 14.7559C155.809 15.1895 156.005 15.6846 156.11 16.2412C156.216 16.792 156.236 17.3691 156.172 17.9727L156.031 19.0273H148.684L148.956 17.3398L153.808 17.3486L153.852 17.1289C153.898 16.8066 153.884 16.5078 153.808 16.2324C153.731 15.9512 153.588 15.7256 153.377 15.5557C153.166 15.3857 152.885 15.2949 152.533 15.2832C152.129 15.2715 151.789 15.3564 151.514 15.5381C151.238 15.7197 151.013 15.96 150.837 16.2588C150.661 16.5576 150.526 16.8828 150.433 17.2344C150.339 17.5801 150.271 17.9141 150.23 18.2363L150.195 18.5879C150.166 18.8984 150.175 19.209 150.222 19.5195C150.269 19.8242 150.359 20.0996 150.494 20.3457C150.635 20.5918 150.825 20.791 151.065 20.9434C151.312 21.0957 151.619 21.1777 151.988 21.1895C152.457 21.2012 152.888 21.1104 153.28 20.917C153.679 20.7178 154.036 20.4541 154.353 20.126L155.46 21.4619C155.196 21.8604 154.859 22.1885 154.449 22.4463C154.045 22.6982 153.608 22.8828 153.14 23C152.671 23.123 152.205 23.1816 151.742 23.1758Z" fill="#2D9CDB"/>
<path d="M102.066 38.5234L96.916 49H94.0859L100.924 36.2031H102.734L102.066 38.5234ZM103.086 49L101.521 38.251L101.618 36.2031H103.314L105.731 49H103.086ZM103.736 44.2363L103.376 46.3018H96.793L97.1533 44.2363H103.736Z" fill="#2D9CDB"/>
<path d="M110.943 47.207C111.254 47.2129 111.529 47.1543 111.77 47.0312C112.016 46.9082 112.218 46.7354 112.376 46.5127C112.534 46.29 112.64 46.0322 112.692 45.7393L115.021 45.7305C114.969 46.4395 114.74 47.0547 114.336 47.5762C113.938 48.0977 113.431 48.499 112.815 48.7803C112.206 49.0615 111.559 49.1934 110.873 49.1758C110.188 49.1641 109.599 49.0264 109.106 48.7627C108.62 48.499 108.228 48.1475 107.929 47.708C107.63 47.2627 107.419 46.7559 107.296 46.1875C107.179 45.6191 107.149 45.0215 107.208 44.3945L107.234 44.1309C107.305 43.4746 107.463 42.8535 107.709 42.2676C107.955 41.6758 108.283 41.1572 108.693 40.7119C109.109 40.2607 109.599 39.9121 110.161 39.666C110.724 39.4141 111.359 39.2969 112.068 39.3145C112.801 39.3262 113.428 39.4932 113.949 39.8154C114.471 40.1318 114.866 40.5654 115.136 41.1162C115.411 41.667 115.543 42.2998 115.531 43.0146L113.211 43.0059C113.217 42.7188 113.179 42.4463 113.097 42.1885C113.015 41.9248 112.874 41.7139 112.675 41.5557C112.481 41.3916 112.218 41.3008 111.884 41.2832C111.491 41.2715 111.163 41.3535 110.899 41.5293C110.636 41.6992 110.422 41.9307 110.258 42.2236C110.094 42.5107 109.968 42.8242 109.88 43.1641C109.792 43.498 109.73 43.8232 109.695 44.1396L109.678 44.3945C109.648 44.6582 109.631 44.9512 109.625 45.2734C109.619 45.5898 109.651 45.8945 109.722 46.1875C109.792 46.4746 109.921 46.7148 110.108 46.9082C110.302 47.0957 110.58 47.1953 110.943 47.207Z" fill="#2D9CDB"/>
<path d="M120.049 47.207C120.359 47.2129 120.635 47.1543 120.875 47.0312C121.121 46.9082 121.323 46.7354 121.481 46.5127C121.64 46.29 121.745 46.0322 121.798 45.7393L124.127 45.7305C124.074 46.4395 123.846 47.0547 123.441 47.5762C123.043 48.0977 122.536 48.499 121.921 48.7803C121.312 49.0615 120.664 49.1934 119.979 49.1758C119.293 49.1641 118.704 49.0264 118.212 48.7627C117.726 48.499 117.333 48.1475 117.034 47.708C116.735 47.2627 116.524 46.7559 116.401 46.1875C116.284 45.6191 116.255 45.0215 116.313 44.3945L116.34 44.1309C116.41 43.4746 116.568 42.8535 116.814 42.2676C117.061 41.6758 117.389 41.1572 117.799 40.7119C118.215 40.2607 118.704 39.9121 119.267 39.666C119.829 39.4141 120.465 39.2969 121.174 39.3145C121.906 39.3262 122.533 39.4932 123.055 39.8154C123.576 40.1318 123.972 40.5654 124.241 41.1162C124.517 41.667 124.648 42.2998 124.637 43.0146L122.316 43.0059C122.322 42.7188 122.284 42.4463 122.202 42.1885C122.12 41.9248 121.979 41.7139 121.78 41.5557C121.587 41.3916 121.323 41.3008 120.989 41.2832C120.597 41.2715 120.269 41.3535 120.005 41.5293C119.741 41.6992 119.527 41.9307 119.363 42.2236C119.199 42.5107 119.073 42.8242 118.985 43.1641C118.897 43.498 118.836 43.8232 118.801 44.1396L118.783 44.3945C118.754 44.6582 118.736 44.9512 118.73 45.2734C118.725 45.5898 118.757 45.8945 118.827 46.1875C118.897 46.4746 119.026 46.7148 119.214 46.9082C119.407 47.0957 119.686 47.1953 120.049 47.207Z" fill="#2D9CDB"/>
<path d="M125.419 44.3945L125.445 44.21C125.516 43.5361 125.677 42.9033 125.929 42.3115C126.187 41.7139 126.526 41.1895 126.948 40.7383C127.376 40.2812 127.877 39.9268 128.451 39.6748C129.031 39.417 129.682 39.2969 130.402 39.3145C131.088 39.3262 131.68 39.4639 132.178 39.7275C132.676 39.9912 133.083 40.3457 133.399 40.791C133.722 41.2363 133.947 41.7461 134.076 42.3203C134.211 42.8945 134.249 43.501 134.19 44.1396L134.173 44.333C134.097 45.001 133.927 45.6309 133.663 46.2227C133.405 46.8086 133.062 47.3271 132.635 47.7783C132.213 48.2236 131.712 48.5723 131.132 48.8242C130.552 49.0762 129.907 49.1934 129.198 49.1758C128.524 49.1641 127.936 49.0293 127.432 48.7715C126.928 48.5078 126.518 48.1562 126.201 47.7168C125.885 47.2715 125.662 46.7646 125.533 46.1963C125.404 45.6279 125.366 45.0273 125.419 44.3945ZM127.915 44.21L127.897 44.4033C127.868 44.6846 127.859 44.9863 127.871 45.3086C127.883 45.625 127.933 45.9268 128.021 46.2139C128.114 46.501 128.267 46.7354 128.478 46.917C128.688 47.0986 128.979 47.1953 129.348 47.207C129.74 47.2188 130.077 47.1396 130.358 46.9697C130.64 46.7998 130.871 46.5713 131.053 46.2842C131.234 45.9912 131.378 45.6748 131.483 45.335C131.589 44.9893 131.659 44.6523 131.694 44.3242L131.712 44.1396C131.735 43.8584 131.741 43.5566 131.729 43.2344C131.724 42.9062 131.674 42.5986 131.58 42.3115C131.486 42.0186 131.334 41.7783 131.123 41.5908C130.912 41.4033 130.622 41.3037 130.253 41.292C129.86 41.2744 129.523 41.3564 129.242 41.5381C128.961 41.7139 128.729 41.9482 128.548 42.2412C128.366 42.5342 128.223 42.8535 128.117 43.1992C128.018 43.5449 127.95 43.8818 127.915 44.21Z" fill="#2D9CDB"/>
<path d="M140.721 46.5918L141.951 39.4902H144.43L142.777 49H140.457L140.721 46.5918ZM141.283 44.7637L141.995 44.7461C141.931 45.3027 141.808 45.8477 141.626 46.3809C141.444 46.9141 141.195 47.3945 140.879 47.8223C140.562 48.25 140.17 48.5869 139.701 48.833C139.232 49.0791 138.679 49.1963 138.04 49.1846C137.519 49.1729 137.079 49.0732 136.722 48.8857C136.364 48.6924 136.08 48.4346 135.869 48.1123C135.658 47.7842 135.515 47.4092 135.438 46.9873C135.368 46.5654 135.356 46.1143 135.403 45.6338L136.432 39.4902H138.901L137.864 45.6689C137.847 45.8682 137.847 46.0586 137.864 46.2402C137.882 46.416 137.929 46.5742 138.005 46.7148C138.081 46.8555 138.189 46.9697 138.33 47.0576C138.471 47.1396 138.658 47.1836 138.893 47.1895C139.391 47.207 139.804 47.1074 140.132 46.8906C140.46 46.668 140.715 46.3691 140.896 45.9941C141.084 45.6191 141.213 45.209 141.283 44.7637Z" fill="#2D9CDB"/>
<path d="M148.332 41.6611L147.058 49H144.579L146.231 39.4902H148.552L148.332 41.6611ZM147.603 43.9111L146.987 43.9287C147.052 43.3604 147.181 42.7979 147.374 42.2412C147.567 41.6846 147.831 41.1836 148.165 40.7383C148.505 40.2871 148.918 39.9326 149.404 39.6748C149.896 39.417 150.468 39.2939 151.118 39.3057C151.646 39.3232 152.079 39.4346 152.419 39.6396C152.765 39.8389 153.028 40.1084 153.21 40.4482C153.397 40.7881 153.518 41.1719 153.57 41.5996C153.629 42.0273 153.635 42.4727 153.588 42.9355L152.568 49H150.081L151.109 42.9092C151.145 42.5986 151.136 42.3232 151.083 42.083C151.03 41.8428 150.913 41.6523 150.731 41.5117C150.556 41.3711 150.298 41.2979 149.958 41.292C149.583 41.2803 149.258 41.3506 148.982 41.5029C148.713 41.6553 148.484 41.8604 148.297 42.1182C148.109 42.376 147.96 42.6602 147.849 42.9707C147.737 43.2812 147.655 43.5947 147.603 43.9111Z" fill="#2D9CDB"/>
<path d="M160.619 39.4902L160.303 41.2832H154.915L155.231 39.4902H160.619ZM156.972 37.1436H159.441L157.895 46.1523C157.871 46.3574 157.871 46.5332 157.895 46.6797C157.924 46.8203 157.991 46.9287 158.097 47.0049C158.202 47.0811 158.366 47.125 158.589 47.1367C158.712 47.1426 158.835 47.1396 158.958 47.1279C159.081 47.1104 159.207 47.0928 159.336 47.0752L159.16 48.9648C158.926 49.0352 158.688 49.085 158.448 49.1143C158.214 49.1494 157.974 49.167 157.728 49.167C157.165 49.1553 156.702 49.0322 156.339 48.7979C155.981 48.5635 155.724 48.2412 155.565 47.8311C155.413 47.415 155.363 46.9346 155.416 46.3896L156.972 37.1436Z" fill="#2D9CDB"/>
<path d="M164.592 39.4902L162.948 49H160.47L162.122 39.4902H164.592ZM162.395 37.0557C162.383 36.6572 162.512 36.3379 162.781 36.0977C163.057 35.8574 163.388 35.7344 163.774 35.7285C164.144 35.7227 164.466 35.834 164.741 36.0625C165.017 36.2852 165.154 36.5869 165.154 36.9678C165.166 37.3662 165.034 37.6855 164.759 37.9258C164.483 38.166 164.155 38.2891 163.774 38.2949C163.405 38.3008 163.083 38.1924 162.808 37.9697C162.538 37.7471 162.4 37.4424 162.395 37.0557Z" fill="#2D9CDB"/>
<path d="M168.652 41.6611L167.378 49H164.899L166.552 39.4902H168.872L168.652 41.6611ZM167.923 43.9111L167.308 43.9287C167.372 43.3604 167.501 42.7979 167.694 42.2412C167.888 41.6846 168.151 41.1836 168.485 40.7383C168.825 40.2871 169.238 39.9326 169.725 39.6748C170.217 39.417 170.788 39.2939 171.438 39.3057C171.966 39.3232 172.399 39.4346 172.739 39.6396C173.085 39.8389 173.349 40.1084 173.53 40.4482C173.718 40.7881 173.838 41.1719 173.891 41.5996C173.949 42.0273 173.955 42.4727 173.908 42.9355L172.889 49H170.401L171.43 42.9092C171.465 42.5986 171.456 42.3232 171.403 42.083C171.351 41.8428 171.233 41.6523 171.052 41.5117C170.876 41.3711 170.618 41.2979 170.278 41.292C169.903 41.2803 169.578 41.3506 169.303 41.5029C169.033 41.6553 168.805 41.8604 168.617 42.1182C168.43 42.376 168.28 42.6602 168.169 42.9707C168.058 43.2812 167.976 43.5947 167.923 43.9111Z" fill="#2D9CDB"/>
<path d="M182.223 39.4902H184.49L182.917 48.6748C182.8 49.5479 182.51 50.292 182.047 50.9072C181.584 51.5225 180.995 51.9883 180.28 52.3047C179.571 52.6211 178.783 52.7705 177.916 52.7529C177.494 52.7412 177.078 52.6768 176.668 52.5596C176.258 52.4424 175.874 52.2695 175.517 52.041C175.159 51.8184 174.849 51.54 174.585 51.2061L175.807 49.7471C176.064 50.0869 176.369 50.3506 176.721 50.5381C177.072 50.7314 177.462 50.834 177.89 50.8457C178.347 50.8574 178.751 50.7754 179.103 50.5996C179.454 50.4238 179.744 50.1748 179.973 49.8525C180.201 49.5303 180.354 49.1465 180.43 48.7012L181.643 41.5645L182.223 39.4902ZM175.2 44.4209L175.227 44.2363C175.297 43.6387 175.438 43.0469 175.648 42.4609C175.859 41.8691 176.144 41.333 176.501 40.8525C176.858 40.3721 177.295 39.9912 177.811 39.71C178.326 39.4287 178.927 39.2969 179.612 39.3145C180.245 39.332 180.758 39.4902 181.15 39.7891C181.543 40.082 181.842 40.4658 182.047 40.9404C182.252 41.4092 182.387 41.9189 182.451 42.4697C182.521 43.0205 182.545 43.5566 182.521 44.0781L182.478 44.4912C182.384 45.0186 182.229 45.5605 182.012 46.1172C181.795 46.6738 181.514 47.1895 181.168 47.6641C180.822 48.1328 180.406 48.5078 179.92 48.7891C179.439 49.0703 178.892 49.2021 178.276 49.1846C177.638 49.167 177.107 49.0117 176.686 48.7188C176.27 48.4258 175.941 48.0479 175.701 47.585C175.467 47.1162 175.312 46.6064 175.235 46.0557C175.159 45.499 175.147 44.9541 175.2 44.4209ZM177.705 44.2275L177.679 44.4209C177.649 44.6846 177.638 44.9746 177.644 45.291C177.655 45.6016 177.702 45.9004 177.784 46.1875C177.872 46.4746 178.016 46.7119 178.215 46.8994C178.414 47.0811 178.689 47.1777 179.041 47.1895C179.504 47.2129 179.899 47.1162 180.228 46.8994C180.562 46.6826 180.828 46.3955 181.027 46.0381C181.227 45.6748 181.364 45.291 181.44 44.8867L181.607 43.7178C181.631 43.4365 181.628 43.1553 181.599 42.874C181.569 42.5928 181.499 42.335 181.388 42.1006C181.282 41.8662 181.124 41.6758 180.913 41.5293C180.708 41.3828 180.436 41.3066 180.096 41.3008C179.703 41.2832 179.363 41.3652 179.076 41.5469C178.795 41.7285 178.561 41.9688 178.373 42.2676C178.186 42.5605 178.036 42.8799 177.925 43.2256C177.813 43.5713 177.74 43.9053 177.705 44.2275Z" fill="#2D9CDB"/>
<path d="M196.373 45.5898C196.426 45.2793 196.399 45.0186 196.294 44.8076C196.194 44.5908 196.042 44.4092 195.837 44.2627C195.638 44.1104 195.412 43.9814 195.16 43.876C194.914 43.7705 194.668 43.6738 194.422 43.5859C193.971 43.4102 193.525 43.2109 193.086 42.9883C192.652 42.7656 192.257 42.502 191.899 42.1973C191.542 41.8867 191.264 41.5264 191.064 41.1162C190.865 40.7002 190.783 40.2139 190.818 39.6572C190.859 39.0244 191.038 38.4766 191.354 38.0137C191.671 37.5508 192.072 37.1729 192.559 36.8799C193.051 36.5811 193.584 36.3613 194.158 36.2207C194.738 36.0801 195.307 36.0156 195.863 36.0273C196.66 36.0391 197.369 36.2061 197.99 36.5283C198.611 36.8447 199.098 37.2959 199.449 37.8818C199.807 38.4619 199.974 39.1592 199.95 39.9736H197.401C197.425 39.5869 197.375 39.2529 197.252 38.9717C197.135 38.6846 196.944 38.4648 196.681 38.3125C196.423 38.1543 196.092 38.0693 195.688 38.0576C195.342 38.0518 195.002 38.1074 194.668 38.2246C194.34 38.3359 194.056 38.5117 193.815 38.752C193.581 38.9863 193.435 39.291 193.376 39.666C193.329 39.9414 193.367 40.1787 193.49 40.3779C193.619 40.5771 193.792 40.7471 194.009 40.8877C194.231 41.0283 194.466 41.1484 194.712 41.248C194.964 41.3418 195.189 41.4268 195.389 41.5029C195.863 41.6729 196.32 41.875 196.76 42.1094C197.205 42.3438 197.598 42.6221 197.938 42.9443C198.277 43.2607 198.538 43.6357 198.72 44.0693C198.901 44.4971 198.975 44.9951 198.939 45.5635C198.887 46.2139 198.711 46.7705 198.412 47.2334C198.113 47.6904 197.727 48.0654 197.252 48.3584C196.777 48.6455 196.259 48.8564 195.696 48.9912C195.134 49.126 194.562 49.1904 193.982 49.1846C193.35 49.1729 192.755 49.0732 192.198 48.8857C191.642 48.6982 191.155 48.4287 190.739 48.0771C190.323 47.7197 190.001 47.2832 189.772 46.7676C189.55 46.2461 189.447 45.6514 189.465 44.9834L192.04 44.9922C192.017 45.3496 192.043 45.6631 192.119 45.9326C192.201 46.1963 192.33 46.4189 192.506 46.6006C192.688 46.7822 192.91 46.9199 193.174 47.0137C193.443 47.1016 193.757 47.1484 194.114 47.1543C194.46 47.1543 194.794 47.1016 195.116 46.9961C195.438 46.8906 195.714 46.7236 195.942 46.4951C196.171 46.2607 196.314 45.959 196.373 45.5898Z" fill="#2D9CDB"/>
<path d="M200.354 44.3945L200.381 44.21C200.451 43.5361 200.612 42.9033 200.864 42.3115C201.122 41.7139 201.462 41.1895 201.884 40.7383C202.312 40.2812 202.812 39.9268 203.387 39.6748C203.967 39.417 204.617 39.2969 205.338 39.3145C206.023 39.3262 206.615 39.4639 207.113 39.7275C207.611 39.9912 208.019 40.3457 208.335 40.791C208.657 41.2363 208.883 41.7461 209.012 42.3203C209.146 42.8945 209.185 43.501 209.126 44.1396L209.108 44.333C209.032 45.001 208.862 45.6309 208.599 46.2227C208.341 46.8086 207.998 47.3271 207.57 47.7783C207.148 48.2236 206.647 48.5723 206.067 48.8242C205.487 49.0762 204.843 49.1934 204.134 49.1758C203.46 49.1641 202.871 49.0293 202.367 48.7715C201.863 48.5078 201.453 48.1562 201.137 47.7168C200.82 47.2715 200.598 46.7646 200.469 46.1963C200.34 45.6279 200.302 45.0273 200.354 44.3945ZM202.851 44.21L202.833 44.4033C202.804 44.6846 202.795 44.9863 202.807 45.3086C202.818 45.625 202.868 45.9268 202.956 46.2139C203.05 46.501 203.202 46.7354 203.413 46.917C203.624 47.0986 203.914 47.1953 204.283 47.207C204.676 47.2188 205.013 47.1396 205.294 46.9697C205.575 46.7998 205.807 46.5713 205.988 46.2842C206.17 45.9912 206.313 45.6748 206.419 45.335C206.524 44.9893 206.595 44.6523 206.63 44.3242L206.647 44.1396C206.671 43.8584 206.677 43.5566 206.665 43.2344C206.659 42.9062 206.609 42.5986 206.516 42.3115C206.422 42.0186 206.27 41.7783 206.059 41.5908C205.848 41.4033 205.558 41.3037 205.188 41.292C204.796 41.2744 204.459 41.3564 204.178 41.5381C203.896 41.7139 203.665 41.9482 203.483 42.2412C203.302 42.5342 203.158 42.8535 203.053 43.1992C202.953 43.5449 202.886 43.8818 202.851 44.21Z" fill="#2D9CDB"/>
<path d="M214.733 35.5L212.396 49H209.917L212.255 35.5H214.733Z" fill="#2D9CDB"/>
<path d="M220.279 46.5918L221.51 39.4902H223.988L222.336 49H220.016L220.279 46.5918ZM220.842 44.7637L221.554 44.7461C221.489 45.3027 221.366 45.8477 221.185 46.3809C221.003 46.9141 220.754 47.3945 220.438 47.8223C220.121 48.25 219.729 48.5869 219.26 48.833C218.791 49.0791 218.237 49.1963 217.599 49.1846C217.077 49.1729 216.638 49.0732 216.28 48.8857C215.923 48.6924 215.639 48.4346 215.428 48.1123C215.217 47.7842 215.073 47.4092 214.997 46.9873C214.927 46.5654 214.915 46.1143 214.962 45.6338L215.99 39.4902H218.46L217.423 45.6689C217.405 45.8682 217.405 46.0586 217.423 46.2402C217.44 46.416 217.487 46.5742 217.563 46.7148C217.64 46.8555 217.748 46.9697 217.889 47.0576C218.029 47.1396 218.217 47.1836 218.451 47.1895C218.949 47.207 219.362 47.1074 219.69 46.8906C220.019 46.668 220.273 46.3691 220.455 45.9941C220.643 45.6191 220.771 45.209 220.842 44.7637Z" fill="#2D9CDB"/>
<path d="M230.387 39.4902L230.07 41.2832H224.683L224.999 39.4902H230.387ZM226.739 37.1436H229.209L227.662 46.1523C227.639 46.3574 227.639 46.5332 227.662 46.6797C227.691 46.8203 227.759 46.9287 227.864 47.0049C227.97 47.0811 228.134 47.125 228.356 47.1367C228.479 47.1426 228.603 47.1396 228.726 47.1279C228.849 47.1104 228.975 47.0928 229.104 47.0752L228.928 48.9648C228.693 49.0352 228.456 49.085 228.216 49.1143C227.981 49.1494 227.741 49.167 227.495 49.167C226.933 49.1553 226.47 49.0322 226.106 48.7979C225.749 48.5635 225.491 48.2412 225.333 47.8311C225.181 47.415 225.131 46.9346 225.184 46.3896L226.739 37.1436Z" fill="#2D9CDB"/>
<path d="M234.359 39.4902L232.716 49H230.237L231.89 39.4902H234.359ZM232.162 37.0557C232.15 36.6572 232.279 36.3379 232.549 36.0977C232.824 35.8574 233.155 35.7344 233.542 35.7285C233.911 35.7227 234.233 35.834 234.509 36.0625C234.784 36.2852 234.922 36.5869 234.922 36.9678C234.934 37.3662 234.802 37.6855 234.526 37.9258C234.251 38.166 233.923 38.2891 233.542 38.2949C233.173 38.3008 232.851 38.1924 232.575 37.9697C232.306 37.7471 232.168 37.4424 232.162 37.0557Z" fill="#2D9CDB"/>
<path d="M235.159 44.3945L235.186 44.21C235.256 43.5361 235.417 42.9033 235.669 42.3115C235.927 41.7139 236.267 41.1895 236.688 40.7383C237.116 40.2812 237.617 39.9268 238.191 39.6748C238.771 39.417 239.422 39.2969 240.143 39.3145C240.828 39.3262 241.42 39.4639 241.918 39.7275C242.416 39.9912 242.823 40.3457 243.14 40.791C243.462 41.2363 243.688 41.7461 243.816 42.3203C243.951 42.8945 243.989 43.501 243.931 44.1396L243.913 44.333C243.837 45.001 243.667 45.6309 243.403 46.2227C243.146 46.8086 242.803 47.3271 242.375 47.7783C241.953 48.2236 241.452 48.5723 240.872 48.8242C240.292 49.0762 239.647 49.1934 238.938 49.1758C238.265 49.1641 237.676 49.0293 237.172 48.7715C236.668 48.5078 236.258 48.1562 235.941 47.7168C235.625 47.2715 235.402 46.7646 235.273 46.1963C235.145 45.6279 235.106 45.0273 235.159 44.3945ZM237.655 44.21L237.638 44.4033C237.608 44.6846 237.6 44.9863 237.611 45.3086C237.623 45.625 237.673 45.9268 237.761 46.2139C237.854 46.501 238.007 46.7354 238.218 46.917C238.429 47.0986 238.719 47.1953 239.088 47.207C239.48 47.2188 239.817 47.1396 240.099 46.9697C240.38 46.7998 240.611 46.5713 240.793 46.2842C240.975 45.9912 241.118 45.6748 241.224 45.335C241.329 44.9893 241.399 44.6523 241.435 44.3242L241.452 44.1396C241.476 43.8584 241.481 43.5566 241.47 43.2344C241.464 42.9062 241.414 42.5986 241.32 42.3115C241.227 42.0186 241.074 41.7783 240.863 41.5908C240.652 41.4033 240.362 41.3037 239.993 41.292C239.601 41.2744 239.264 41.3564 238.982 41.5381C238.701 41.7139 238.47 41.9482 238.288 42.2412C238.106 42.5342 237.963 42.8535 237.857 43.1992C237.758 43.5449 237.69 43.8818 237.655 44.21Z" fill="#2D9CDB"/>
<path d="M248.281 41.6611L247.007 49H244.528L246.181 39.4902H248.501L248.281 41.6611ZM247.552 43.9111L246.937 43.9287C247.001 43.3604 247.13 42.7979 247.323 42.2412C247.517 41.6846 247.78 41.1836 248.114 40.7383C248.454 40.2871 248.867 39.9326 249.354 39.6748C249.846 39.417 250.417 39.2939 251.067 39.3057C251.595 39.3232 252.028 39.4346 252.368 39.6396C252.714 39.8389 252.978 40.1084 253.159 40.4482C253.347 40.7881 253.467 41.1719 253.52 41.5996C253.578 42.0273 253.584 42.4727 253.537 42.9355L252.518 49H250.03L251.059 42.9092C251.094 42.5986 251.085 42.3232 251.032 42.083C250.979 41.8428 250.862 41.6523 250.681 41.5117C250.505 41.3711 250.247 41.2979 249.907 41.292C249.532 41.2803 249.207 41.3506 248.932 41.5029C248.662 41.6553 248.434 41.8604 248.246 42.1182C248.059 42.376 247.909 42.6602 247.798 42.9707C247.687 43.2812 247.604 43.5947 247.552 43.9111Z" fill="#2D9CDB"/>
<path d="M259.892 46.3193C259.938 46.0381 259.868 45.8213 259.681 45.6689C259.493 45.5107 259.262 45.3906 258.986 45.3086C258.717 45.2266 258.482 45.1621 258.283 45.1152C257.932 45.0215 257.577 44.9043 257.22 44.7637C256.868 44.6172 256.549 44.4355 256.262 44.2188C255.975 44.002 255.746 43.7383 255.576 43.4277C255.406 43.1113 255.33 42.7393 255.348 42.3115C255.365 41.8018 255.494 41.3594 255.734 40.9844C255.98 40.6035 256.297 40.29 256.684 40.0439C257.07 39.792 257.492 39.6045 257.949 39.4814C258.406 39.3584 258.86 39.3027 259.312 39.3145C259.944 39.3203 260.53 39.4375 261.069 39.666C261.614 39.8945 262.054 40.2344 262.388 40.6855C262.728 41.1367 262.897 41.6992 262.897 42.373L260.445 42.3643C260.451 42.1064 260.41 41.8809 260.322 41.6875C260.234 41.4941 260.1 41.3447 259.918 41.2393C259.736 41.1338 259.505 41.0811 259.224 41.0811C259.001 41.0811 258.778 41.125 258.556 41.2129C258.339 41.2949 258.151 41.418 257.993 41.582C257.835 41.7461 257.735 41.9482 257.694 42.1885C257.659 42.3877 257.688 42.5518 257.782 42.6807C257.876 42.8096 258.002 42.915 258.16 42.9971C258.318 43.0732 258.485 43.1377 258.661 43.1904C258.837 43.2373 258.995 43.2754 259.136 43.3047C259.651 43.4395 260.155 43.6123 260.647 43.8232C261.14 44.0342 261.541 44.3301 261.852 44.7109C262.162 45.0859 262.306 45.5869 262.282 46.2139C262.265 46.7471 262.124 47.2041 261.86 47.585C261.597 47.96 261.257 48.2676 260.841 48.5078C260.431 48.7422 259.985 48.9121 259.505 49.0176C259.03 49.1289 258.564 49.1816 258.107 49.1758C257.469 49.1641 256.868 49.0352 256.306 48.7891C255.749 48.543 255.298 48.1855 254.952 47.7168C254.606 47.2422 254.431 46.6621 254.425 45.9766L256.745 45.9854C256.751 46.29 256.812 46.5479 256.93 46.7588C257.047 46.9697 257.214 47.1309 257.431 47.2422C257.653 47.3477 257.917 47.4004 258.222 47.4004C258.462 47.4062 258.699 47.374 258.934 47.3037C259.174 47.2334 259.382 47.1191 259.558 46.9609C259.733 46.7969 259.845 46.583 259.892 46.3193Z" fill="#2D9CDB"/>
</svg>
