<svg width="45" height="40" viewBox="0 0 45 40" fill="none" xmlns="http://www.w3.org/2000/svg">
<path d="M0 9.33435C0.0528376 9.16879 0.106849 9.00441 0.158513 8.83885C0.662231 7.19501 2.30607 6.12534 3.9499 6.36487C5.71116 6.61967 7.00274 8.03572 7.02388 9.78288C7.04736 11.9833 7.03092 14.1837 7.03092 16.3841V16.9077C8.32838 16.9077 9.24893 17.5876 10.0615 18.4823C10.4254 18.8827 10.8528 19.2279 11.2027 19.6412C12.4943 21.1676 14.2074 21.8228 16.1084 22.107C17.0924 22.2537 18.0834 22.3571 18.9511 22.916C20.5949 23.9727 21.5554 25.4897 21.5918 27.4295C21.6658 31.242 21.6211 35.0616 21.6176 38.8717C21.6176 39.4518 21.2595 39.8005 20.6783 39.8017C17.6168 39.8032 14.5558 39.804 11.4951 39.804C10.8916 39.804 10.5558 39.4518 10.5499 38.833C10.5429 37.424 10.5346 36.015 10.5558 34.606C10.5558 34.276 10.4478 34.1211 10.1601 33.9802C8.80627 33.3214 7.44306 32.6768 6.12212 31.9535C2.63366 30.0455 0.619961 27.0995 0.0798435 23.1473C0.0590706 23.0329 0.0324208 22.9196 0 22.8079L0 9.33435ZM19.8211 38.0216C19.8372 37.986 19.849 37.9485 19.8564 37.9101C19.8564 34.4322 19.8834 30.9555 19.8446 27.4776C19.8282 25.9054 18.7127 24.4976 17.2826 24.0925C16.8712 23.9902 16.4535 23.9157 16.0321 23.8694C13.6967 23.5336 11.5832 22.7645 9.98278 20.907C9.43701 20.2933 8.85598 19.7119 8.24267 19.1657C8.0159 18.9445 7.7332 18.7892 7.42489 18.7165C7.11657 18.6438 6.79428 18.6564 6.49258 18.7529C6.19087 18.8494 5.92115 19.0263 5.71233 19.2645C5.5035 19.5027 5.36347 19.7933 5.30724 20.105C5.17691 20.7649 5.41879 21.3085 5.88611 21.7747C7.32877 23.2134 8.76791 24.6561 10.2035 26.1027C10.6344 26.5359 10.6568 27.0537 10.2845 27.4259C9.91233 27.7982 9.38161 27.7582 8.96008 27.3379C7.4865 25.8666 6.0047 24.4025 4.55225 22.9136C2.98474 21.305 3.2137 18.8815 5.02192 17.53C5.09017 17.4752 5.14682 17.4072 5.18854 17.3302C5.23027 17.2532 5.25626 17.1687 5.26497 17.0815C5.28063 14.676 5.28063 12.2698 5.26497 9.86272C5.27646 9.62501 5.23946 9.38745 5.15622 9.16449C5.07298 8.94153 4.94524 8.73784 4.78078 8.56582C4.61632 8.39379 4.41857 8.25703 4.19958 8.16386C3.98058 8.07069 3.74492 8.02305 3.50693 8.02385C3.26894 8.02465 3.0336 8.07386 2.81524 8.1685C2.59687 8.26314 2.40005 8.40122 2.23675 8.57434C2.07344 8.74746 1.94707 8.952 1.86533 9.17552C1.78358 9.39903 1.74817 9.63683 1.76125 9.87447C1.75538 13.9688 1.69433 18.0643 1.78591 22.1563C1.85988 25.4522 3.33816 28.1046 6.11859 29.8811C7.65206 30.8616 9.34639 31.5931 10.975 32.422C12.3934 33.1441 12.3112 33.0032 12.3053 34.579C12.3053 35.7191 12.3053 36.8604 12.3053 38.0216H19.8211Z" fill="#2D9CDB"/>
<path d="M45.0001 9.33435C44.9473 9.16879 44.8932 9.00441 44.8416 8.83885C44.3379 7.19501 42.694 6.12534 41.0502 6.36487C39.2889 6.61967 37.9973 8.03572 37.9762 9.78288C37.9527 11.9833 37.9692 14.1837 37.9692 16.3841V16.9077C36.6717 16.9077 35.75 17.5876 34.9386 18.4823C34.5735 18.8827 34.1472 19.2279 33.7973 19.6412C32.5058 21.1676 30.7926 21.8228 28.8917 22.107C27.9077 22.2537 26.9167 22.3571 26.049 22.916C24.4052 23.9727 23.4447 25.4897 23.4071 27.4295C23.3343 31.242 23.3789 35.0616 23.3825 38.8717C23.3825 39.4518 23.7406 39.8005 24.3218 39.8017C27.3825 39.8072 30.4427 39.8072 33.5026 39.8017C34.1062 39.8017 34.442 39.4494 34.442 38.8306C34.449 37.4216 34.4561 36.0126 34.442 34.6036C34.442 34.2737 34.55 34.1187 34.8377 33.9778C36.1915 33.3191 37.5547 32.6745 38.8756 31.9512C42.3641 30.0432 44.3778 27.0972 44.9179 23.1449C44.9387 23.0305 44.9653 22.9173 44.9977 22.8056L45.0001 9.33435ZM25.1789 38.0216C25.1629 37.986 25.151 37.9485 25.1437 37.9101C25.1437 34.4322 25.1167 30.9555 25.1555 27.4776C25.1719 25.9054 26.2874 24.4976 27.7175 24.0925C28.1289 23.9902 28.5466 23.9157 28.968 23.8694C31.3034 23.5336 33.4169 22.7645 35.0173 20.907C35.5628 20.293 36.1438 19.7116 36.7574 19.1657C36.9842 18.9445 37.2669 18.7892 37.5752 18.7165C37.8835 18.6438 38.2058 18.6564 38.5075 18.7529C38.8092 18.8494 39.0789 19.0263 39.2878 19.2645C39.4966 19.5027 39.6366 19.7933 39.6928 20.105C39.8232 20.7649 39.5813 21.3085 39.114 21.7747C37.6705 23.2134 36.2314 24.6561 34.7966 26.1027C34.3656 26.5359 34.3433 27.0537 34.7155 27.4259C35.0878 27.7982 35.6185 27.7582 36.04 27.3379C37.5136 25.8666 38.9954 24.4025 40.4478 22.9136C42.0154 21.305 41.7864 18.8815 39.9782 17.53C39.9099 17.4752 39.8533 17.4072 39.8115 17.3302C39.7698 17.2532 39.7438 17.1687 39.7351 17.0815C39.7202 14.676 39.7183 12.2698 39.7292 9.86272C39.7298 9.63251 39.7757 9.40466 39.8643 9.19218C39.9529 8.9797 40.0824 8.78675 40.2456 8.62435C40.4088 8.46194 40.6023 8.33327 40.8152 8.24567C41.0281 8.15807 41.2562 8.11326 41.4864 8.1138C41.7166 8.11434 41.9445 8.16022 42.1569 8.24881C42.3694 8.33741 42.5624 8.46699 42.7248 8.63016C42.8872 8.79332 43.0158 8.98688 43.1034 9.19977C43.191 9.41267 43.2359 9.64073 43.2353 9.87094C43.2424 13.9653 43.3034 18.0608 43.2118 22.1528C43.1379 25.4486 41.6596 28.1011 38.8791 29.8776C37.3457 30.858 35.6514 31.5895 34.0228 32.4185C32.6044 33.1406 32.6866 32.9997 32.6925 34.5755C32.6925 35.7156 32.6925 36.8569 32.6925 38.0181L25.1789 38.0216Z" fill="#2D9CDB"/>
<path d="M22.544 2.40705C23.02 2.40705 23.4854 2.54822 23.8812 2.81271C24.2771 3.0772 24.5856 3.45313 24.7678 3.89296C24.95 4.33279 24.9976 4.81676 24.9048 5.28368C24.8119 5.75061 24.5826 6.1795 24.246 6.51613C23.9094 6.85276 23.4805 7.08201 23.0135 7.17489C22.5466 7.26777 22.0626 7.2201 21.6228 7.03791C21.183 6.85573 20.8071 6.54721 20.5426 6.15138C20.2781 5.75554 20.1369 5.29016 20.1369 4.81409C20.1388 4.17628 20.393 3.56511 20.844 3.11411C21.295 2.6631 21.9061 2.40891 22.544 2.40705ZM22.544 13.2388C25.7929 13.2388 29.5244 14.791 29.7651 15.6458V16.8493H15.3228V15.6575C15.5635 14.791 19.295 13.2388 22.544 13.2388ZM22.544 0C21.5918 0 20.6611 0.282341 19.8694 0.811321C19.0777 1.3403 18.4607 2.09216 18.0963 2.97182C17.7319 3.85148 17.6366 4.81943 17.8224 5.75328C18.0081 6.68712 18.4666 7.54491 19.1399 8.21817C19.8131 8.89143 20.6709 9.34993 21.6048 9.53568C22.5386 9.72144 23.5066 9.6261 24.3862 9.26173C25.2659 8.89737 26.0177 8.28033 26.5467 7.48866C27.0757 6.69699 27.358 5.76623 27.358 4.81409C27.358 3.53732 26.8509 2.31283 25.948 1.41001C25.0452 0.507197 23.8207 0 22.544 0ZM22.544 10.8317C19.3303 10.8317 12.9158 12.445 12.9158 15.6458V19.2564H32.1721V15.6458C32.1721 12.4462 25.7577 10.8317 22.544 10.8317Z" fill="#2D9CDB"/>
</svg>
