<svg width="2048" height="1080" viewBox="0 0 2048 1080" fill="none" xmlns="http://www.w3.org/2000/svg">
<rect width="2048" height="1080" fill="#091F2C"/>
<mask id="mask0" style="mask-type:alpha" maskUnits="userSpaceOnUse" x="0" y="0" width="2048" height="1080">
<rect width="2048" height="1080" fill="#060039"/>
</mask>
<g mask="url(#mask0)">
<path d="M2048 803.7C2048 832.53 2015.05 855.9 1974.4 855.9C1933.75 855.9 1900.8 832.53 1900.8 803.7" stroke="#2D9CDB" stroke-width="13" stroke-linecap="round" stroke-linejoin="round"/>
<path d="M2048 44.1C1997.1 44.1 1955.84 14.8865 1955.84 -21.15C1955.84 -57.1866 1997.1 -86.4 2048 -86.4" stroke="#EB5757" stroke-width="13" stroke-linecap="round" stroke-linejoin="round"/>
<path d="M719.359 -33.3845C719.359 -3.51471 753.744 20.7 796.159 20.7C838.575 20.7 872.959 -3.51471 872.959 -33.3845V-94.5" stroke="#2D9CDB" stroke-width="13" stroke-linecap="round" stroke-linejoin="round"/>
<path d="M175.661 1175.4C80.0597 1175.4 2.55957 1121.21 2.55957 1054.35C2.55957 987.492 80.0597 933.3 175.661 933.3H334.08" stroke="#44EAFF" stroke-width="13" stroke-linecap="round" stroke-linejoin="round"/>
<path d="M165.094 1092.6C133.296 1092.6 107.52 1075.07 107.52 1053.45C107.52 1031.83 133.296 1014.3 165.094 1014.3H226.56" stroke="#2D9CDB" stroke-width="13" stroke-linecap="round" stroke-linejoin="round"/>
<path d="M2048 320.4V168.913C2048 139.248 2013.61 115.2 1971.2 115.2C1928.79 115.2 1894.4 139.248 1894.4 168.913V192.361" stroke="#4F4F4F" stroke-width="13" stroke-linecap="round" stroke-linejoin="round"/>
<path d="M861.439 780.082C865.029 780.082 867.939 777.172 867.939 773.582C867.939 769.993 865.029 767.082 861.439 767.082V780.082ZM726.556 926.711C730.146 926.711 733.056 923.8 733.056 920.211C733.056 916.621 730.146 913.711 726.556 913.711V926.711ZM469.555 1181.9C473.145 1181.9 476.055 1178.99 476.055 1175.4C476.055 1171.81 473.145 1168.9 469.555 1168.9V1181.9ZM733.738 996.344C733.738 992.755 730.828 989.844 727.238 989.844C723.648 989.844 720.738 992.755 720.738 996.344H733.738ZM505.395 433.8C505.395 430.21 502.484 427.3 498.895 427.3C495.305 427.3 492.395 430.21 492.395 433.8H505.395ZM854.94 696.039C854.94 699.629 857.85 702.539 861.44 702.539C865.03 702.539 867.94 699.629 867.94 696.039H854.94ZM861.439 767.082H631.76V780.082H861.439V767.082ZM631.76 767.082C601.645 767.082 574.102 775.609 553.913 789.729C533.746 803.835 520.436 823.946 520.436 846.897H533.436C533.436 829.357 543.593 812.812 561.364 800.382C579.114 787.968 603.983 780.082 631.76 780.082V767.082ZM520.436 846.897C520.436 869.847 533.746 889.958 553.913 904.064C574.102 918.184 601.645 926.711 631.76 926.711V913.711C603.983 913.711 579.114 905.825 561.364 893.411C543.593 880.981 533.436 864.436 533.436 846.897H520.436ZM631.76 926.711H726.556V913.711H631.76V926.711ZM469.555 1168.9H455.863V1181.9H469.555V1168.9ZM455.863 1168.9C436.844 1168.9 419.901 1163.46 407.885 1155C395.85 1146.53 389.22 1135.44 389.22 1123.92H376.22C376.22 1140.82 385.964 1155.47 400.402 1165.63C414.858 1175.81 434.487 1181.9 455.863 1181.9V1168.9ZM389.22 1123.92C389.22 1112.38 395.851 1101.29 407.885 1092.82C419.901 1084.36 436.844 1078.92 455.863 1078.92V1065.92C434.487 1065.92 414.858 1072.01 400.401 1082.19C385.963 1092.35 376.22 1107.01 376.22 1123.92H389.22ZM455.863 1078.92H619.165V1065.92H455.863V1078.92ZM619.165 1078.92C650.186 1078.92 678.548 1070.08 699.326 1055.46C720.085 1040.84 733.738 1020.04 733.738 996.344H720.738C720.738 1014.67 710.198 1031.9 691.843 1044.82C673.506 1057.73 647.831 1065.92 619.165 1065.92V1078.92ZM492.395 433.8V491.657H505.395V433.8H492.395ZM492.395 491.657C492.395 529.58 514.24 563.263 548.246 587.201C582.27 611.151 628.932 625.76 680.166 625.76V612.76C631.287 612.76 587.313 598.803 555.729 576.571C524.128 554.325 505.395 524.207 505.395 491.657H492.395ZM680.166 625.76H752.367V612.76H680.166V625.76ZM752.367 625.76C781.308 625.76 807.233 634.028 825.751 647.063C844.288 660.111 854.94 677.524 854.94 696.039H867.94C867.94 672.15 854.175 651.173 833.234 636.433C812.276 621.679 783.664 612.76 752.367 612.76V625.76Z" fill="#4F4F4F"/>
<path fill-rule="evenodd" clip-rule="evenodd" d="M752.64 294.3C780.917 294.3 803.84 278.182 803.84 258.3C803.84 238.418 780.917 222.3 752.64 222.3C724.363 222.3 701.44 238.418 701.44 258.3C701.44 278.182 724.363 294.3 752.64 294.3Z" stroke="#2D9CDB" stroke-width="13" stroke-linecap="round" stroke-linejoin="round"/>
<path fill-rule="evenodd" clip-rule="evenodd" d="M893.44 1032.3C934.442 1032.3 967.68 1009.13 967.68 980.55C967.68 951.969 934.442 928.8 893.44 928.8C852.439 928.8 819.2 951.969 819.2 980.55C819.2 1009.13 852.439 1032.3 893.44 1032.3Z" stroke="#EB5757" stroke-width="13" stroke-linecap="round" stroke-linejoin="round"/>
<path fill-rule="evenodd" clip-rule="evenodd" d="M235.52 192.6C280.056 192.6 316.16 167.214 316.16 135.9C316.16 104.585 280.056 79.2 235.52 79.2C190.984 79.2 154.88 104.585 154.88 135.9C154.88 167.214 190.984 192.6 235.52 192.6Z" stroke="#2D9CDB" stroke-width="13" stroke-linecap="round" stroke-linejoin="round"/>
<path d="M236.159 259.2C335.482 259.2 415.999 203.392 415.999 134.55C415.999 65.7076 335.482 9.90002 236.159 9.90002C136.837 9.90002 56.3193 65.7076 56.3193 134.55" stroke="#44EAFF" stroke-width="13" stroke-linecap="round" stroke-linejoin="round"/>
<path d="M1678.35 1006.61C1651.03 1078.44 1710.13 1152.01 1810.36 1170.93C1910.59 1189.85 2014.01 1146.95 2041.33 1075.12C2068.65 1003.28 2009.55 929.721 1909.32 910.8" stroke="#2D9CDB" stroke-width="13" stroke-linecap="round" stroke-linejoin="round"/>
<path d="M616.743 1002.8C620.333 1002.8 623.243 999.89 623.243 996.3C623.243 992.71 620.333 989.8 616.743 989.8V1002.8ZM453.979 769.389C456.219 766.584 455.761 762.494 452.956 760.254C450.151 758.014 446.061 758.472 443.821 761.277L453.979 769.389ZM751.36 698.6C754.95 698.6 757.86 695.69 757.86 692.1C757.86 688.51 754.95 685.6 751.36 685.6V698.6ZM499.095 714.566C495.946 716.29 494.792 720.241 496.517 723.389C498.241 726.538 502.192 727.692 505.34 725.967L499.095 714.566ZM616.743 989.8C509.907 989.8 426.34 923.342 426.34 844.66H413.34C413.34 933.475 506.088 1002.8 616.743 1002.8V989.8ZM426.34 844.66C426.34 817.231 436.352 791.462 453.979 769.389L443.821 761.277C424.587 785.361 413.34 813.93 413.34 844.66H426.34ZM751.36 685.6H617.219V698.6H751.36V685.6ZM617.219 685.6C573.26 685.6 532.459 696.29 499.095 714.566L505.34 725.967C536.697 708.792 575.334 698.6 617.219 698.6V685.6Z" fill="#4F4F4F"/>
<path d="M420.48 277.2C379.831 277.2 346.88 300.369 346.88 328.95C346.88 357.531 379.831 380.7 420.48 380.7C461.129 380.7 494.08 357.531 494.08 328.95V277.2" stroke="#2D9CDB" stroke-width="13" stroke-linecap="round" stroke-linejoin="round"/>
<path d="M442.88 -25.65C442.88 12.3746 486.434 43.2 540.16 43.2C593.886 43.2 637.44 12.3746 637.44 -25.65C637.44 -63.6748 593.886 -94.5 540.16 -94.5H442.88" stroke="#EB5757" stroke-width="13" stroke-linecap="round" stroke-linejoin="round"/>
<path d="M91.5204 684.524C44.5099 684.524 6.40039 658.014 6.40039 625.312C6.40039 592.61 44.5099 566.1 91.5204 566.1C138.531 566.1 176.64 592.61 176.64 625.312V806.4" stroke="#2D9CDB" stroke-width="13" stroke-linecap="round" stroke-linejoin="round"/>
<path d="M1871.34 687.6C1871.34 717.92 1905.74 742.5 1948.16 742.5C1990.58 742.5 2024.96 717.92 2024.96 687.6C2024.96 657.28 1990.58 632.7 1948.16 632.7H1690.88" stroke="#2D9CDB" stroke-width="13" stroke-linecap="round" stroke-linejoin="round"/>
<path d="M1236.48 30.4117C1191.24 30.4117 1154.56 55.839 1154.56 87.2058C1154.56 118.573 1191.24 144 1236.48 144C1281.72 144 1318.4 118.573 1318.4 87.2058V-95.4" stroke="#4484AB" stroke-width="13" stroke-linecap="round" stroke-linejoin="round"/>
<path d="M1171.1 1123.2C1171.1 1094.37 1204.07 1071 1244.75 1071C1285.43 1071 1318.4 1094.37 1318.4 1123.2C1318.4 1152.03 1285.43 1175.4 1244.75 1175.4H1127.68" stroke="#2D9CDB" stroke-width="13" stroke-linecap="round" stroke-linejoin="round"/>
<path d="M1394.56 410.92C1435.21 410.92 1468.16 433.972 1468.16 462.41C1468.16 490.848 1435.21 513.9 1394.56 513.9C1353.91 513.9 1320.96 490.848 1320.96 462.41V270" stroke="#4F4F4F" stroke-width="13" stroke-linecap="round" stroke-linejoin="round"/>
<path d="M80.0004 416.437C39.3522 416.437 6.40039 439.262 6.40039 467.419C6.40039 495.575 39.3522 518.4 80.0004 518.4C120.649 518.4 153.6 495.575 153.6 467.419V259.2" stroke="#4F4F4F" stroke-width="13" stroke-linecap="round" stroke-linejoin="round"/>
<path d="M881.541 259.2C881.541 208.004 823.458 166.5 751.811 166.5C680.163 166.5 622.08 208.004 622.08 259.2C622.08 310.396 680.163 351.9 751.811 351.9H1091.84" stroke="#44EAFF" stroke-width="13" stroke-linecap="round" stroke-linejoin="round"/>
<path d="M1918.26 558.9C1989.93 558.9 2048 517.396 2048 466.2C2048 415.004 1989.93 373.5 1918.26 373.5H1578.24" stroke="#2D9CDB" stroke-width="13" stroke-linecap="round" stroke-linejoin="round"/>
<path fill-rule="evenodd" clip-rule="evenodd" d="M1416.96 62.55C1416.96 14.5838 1471.67 -24.3 1539.15 -24.3H1664.69C1732.18 -24.3 1786.88 14.5838 1786.88 62.55V62.55C1786.88 110.516 1732.18 149.4 1664.69 149.4H1539.15C1471.67 149.4 1416.96 110.516 1416.96 62.55V62.55Z" stroke="#4F4F4F" stroke-width="13" stroke-linecap="round" stroke-linejoin="round"/>
<path fill-rule="evenodd" clip-rule="evenodd" d="M341.12 688.5C299.058 688.5 264.96 664.565 264.96 635.04V482.76C264.96 453.235 299.058 429.3 341.12 429.3V429.3C383.182 429.3 417.28 453.235 417.28 482.76V635.04C417.28 664.565 383.182 688.5 341.12 688.5V688.5Z" stroke="#44EAFF" stroke-width="13" stroke-linecap="round" stroke-linejoin="round"/>
<path d="M1059.84 620.55V540.149C1059.84 517.202 1086.49 498.6 1119.36 498.6V498.6C1152.23 498.6 1178.88 517.202 1178.88 540.149V700.951C1178.88 723.898 1152.23 742.5 1119.36 742.5V742.5V742.5C1086.49 742.5 1059.84 723.898 1059.84 700.951V681.525" stroke="#EB5757" stroke-width="13" stroke-linecap="round" stroke-linejoin="round"/>
<path d="M1169.92 190.737V197.747C1169.92 237.651 1123.79 270 1066.88 270V270C1009.97 270 963.84 237.651 963.84 197.747V-22.247C963.84 -62.1513 1009.97 -94.5 1066.88 -94.5V-94.5C1123.79 -94.5 1169.92 -62.1513 1169.92 -22.247V-20.0902" stroke="#44EAFF" stroke-width="13" stroke-linecap="round" stroke-linejoin="round"/>
<path d="M91.8404 761.4H85.6826C41.8963 761.4 6.40039 786.382 6.40039 817.2V817.2C6.40039 848.018 41.8962 873 85.6826 873H268.878C312.665 873 348.16 848.018 348.16 817.2V817.2C348.16 786.382 312.665 761.4 268.878 761.4H262.72" stroke="#44EAFF" stroke-width="13" stroke-linecap="round" stroke-linejoin="round"/>
<path d="M961.28 498.6V707.073C961.28 769.386 1033.77 819.9 1123.2 819.9C1212.63 819.9 1285.12 769.386 1285.12 707.073V657.818" stroke="#2D9CDB" stroke-width="13" stroke-linecap="round" stroke-linejoin="round"/>
<path d="M636.16 851.4H902.146C1003.38 851.4 1085.44 909.424 1085.44 981C1085.44 1052.57 1003.38 1110.6 902.146 1110.6H822.128" stroke="#2D9CDB" stroke-width="13" stroke-linecap="round" stroke-linejoin="round"/>
<path d="M750.081 535.5H687.122C644.838 535.5 610.561 511.323 610.561 481.5C610.561 451.677 644.838 427.5 687.122 427.5H813.039C855.323 427.5 889.6 451.677 889.6 481.5V486.297C889.6 513.471 858.368 535.5 819.84 535.5" stroke="#4484AB" stroke-width="13" stroke-linecap="round" stroke-linejoin="round"/>
<path d="M1394.56 329.4H1466.47C1514.77 329.4 1553.92 303.41 1553.92 271.35C1553.92 239.29 1514.77 213.3 1466.47 213.3H1322.65C1274.35 213.3 1235.2 239.29 1235.2 271.35" stroke="#2D9CDB" stroke-width="13" stroke-linecap="round" stroke-linejoin="round"/>
<path d="M864 87.2999H691.608C582.516 87.2999 494.08 149.756 494.08 226.8" stroke="#2D9CDB" stroke-width="13" stroke-linecap="round" stroke-linejoin="round"/>
<path d="M1855.36 990.756C1896.01 990.756 1928.96 1013.76 1928.96 1042.13C1928.96 1070.5 1896.01 1093.5 1855.36 1093.5C1814.71 1093.5 1781.76 1070.5 1781.76 1042.13V707.4" stroke="#EB5757" stroke-width="13" stroke-linecap="round" stroke-linejoin="round"/>
<path d="M1304.32 1024.2C1304.32 971.513 1364.28 928.8 1438.25 928.8H1674.24" stroke="#2D9CDB" stroke-width="13" stroke-linecap="round" stroke-linejoin="round"/>
<path d="M956.16 427.5H1082.08C1166.65 427.5 1235.2 379.146 1235.2 319.5" stroke="#4484AB" stroke-width="13" stroke-linecap="round" stroke-linejoin="round"/>
<path d="M1690.88 709.2V757.58C1690.88 806.412 1634.56 846 1565.07 846H1466.88" stroke="#4484AB" stroke-width="13" stroke-linecap="round" stroke-linejoin="round"/>
<path d="M1928.96 468H1821.43C1743.67 468 1680.64 512.727 1680.64 567.9" stroke="#4F4F4F" stroke-width="13" stroke-linecap="round" stroke-linejoin="round"/>
<path d="M279.04 1175.4V1093.39C279.04 1046.18 331.488 1006.62 401.92 996.3" stroke="#2D9CDB" stroke-width="13" stroke-linecap="round" stroke-linejoin="round"/>
<path d="M56.9593 198C56.9593 206.382 56.9593 311.893 56.9593 363.6" stroke="#2D9CDB" stroke-width="13" stroke-linecap="round" stroke-linejoin="round"/>
<path d="M1393.28 578.7C1393.28 585.624 1393.28 672.785 1393.28 715.5" stroke="#2D9CDB" stroke-width="13" stroke-linecap="round" stroke-linejoin="round"/>
<path d="M1196.16 950.4C1196.16 953.224 1196.16 988.773 1196.16 1006.2" stroke="#2D9CDB" stroke-width="13" stroke-linecap="round" stroke-linejoin="round"/>
<path d="M1584.74 432.9C1584.74 429.31 1581.83 426.4 1578.24 426.4C1574.65 426.4 1571.74 429.31 1571.74 432.9H1584.74ZM1431.78 761.295C1428.19 761.295 1425.28 764.205 1425.28 767.795C1425.28 771.384 1428.19 774.295 1431.78 774.295V761.295ZM1221.12 880.9C1217.53 880.9 1214.62 883.81 1214.62 887.4C1214.62 890.99 1217.53 893.9 1221.12 893.9V880.9ZM1390.13 797.344C1390.13 793.754 1387.22 790.844 1383.63 790.844C1380.04 790.844 1377.13 793.754 1377.13 797.344H1390.13ZM1571.74 432.9V560.998H1584.74V432.9H1571.74ZM1571.74 560.998C1571.74 568.362 1567.47 575.699 1559.2 581.465C1550.95 587.216 1539.21 590.98 1525.93 590.98V603.98C1541.54 603.98 1555.95 599.579 1566.64 592.128C1577.3 584.692 1584.74 573.789 1584.74 560.998H1571.74ZM1525.93 590.98C1510.32 590.98 1495.91 595.383 1485.23 602.838C1474.56 610.278 1467.13 621.185 1467.13 633.976H1480.13C1480.13 626.61 1484.4 619.269 1492.67 613.5C1500.91 607.745 1512.65 603.98 1525.93 603.98V590.98ZM1467.13 633.976V641.545H1480.13V633.976H1467.13ZM1467.13 641.545C1467.13 654.336 1474.56 665.243 1485.23 672.682C1495.91 680.137 1510.32 684.541 1525.93 684.541V671.541C1512.65 671.541 1500.91 667.775 1492.67 662.021C1484.4 656.251 1480.13 648.91 1480.13 641.545H1467.13ZM1525.93 684.541C1539.21 684.541 1550.95 688.307 1559.2 694.061C1567.47 699.831 1571.74 707.172 1571.74 714.537H1584.74C1584.74 701.746 1577.3 690.839 1566.64 683.4C1555.95 675.945 1541.54 671.541 1525.93 671.541V684.541ZM1571.74 714.537V722.918H1584.74V714.537H1571.74ZM1571.74 722.918C1571.74 732.598 1566.12 742.034 1555.68 749.32C1545.26 756.591 1530.52 761.295 1513.92 761.295V774.295C1532.85 774.295 1550.26 768.953 1563.12 759.981C1575.96 751.025 1584.74 738.023 1584.74 722.918H1571.74ZM1513.92 761.295H1480.6V774.295H1513.92V761.295ZM1480.6 761.295H1431.78V774.295H1480.6V761.295ZM1221.12 893.9H1255.39V880.9H1221.12V893.9ZM1255.39 893.9C1291.98 893.9 1325.38 883.496 1349.81 866.343C1374.21 849.203 1390.13 824.906 1390.13 797.344H1377.13C1377.13 819.519 1364.34 840.25 1342.33 855.704C1320.35 871.144 1289.63 880.9 1255.39 880.9V893.9Z" fill="#44EAFF"/>
<path d="M1895.68 255.529V273.783C1895.68 299.529 1865.9 320.4 1829.19 320.4V320.4C1792.47 320.4 1762.69 299.529 1762.69 273.783V258.663C1762.69 233.112 1733.15 212.4 1696.71 212.4V212.4C1660.27 212.4 1630.72 233.112 1630.72 258.663V277.271" stroke="#EB5757" stroke-width="13" stroke-linecap="round" stroke-linejoin="round"/>
<path fill-rule="evenodd" clip-rule="evenodd" d="M1393.92 1061.97C1393.92 1025.7 1435.75 996.3 1487.36 996.3V996.3C1538.96 996.3 1580.8 1025.7 1580.8 1061.97V1109.73C1580.8 1145.99 1538.96 1175.4 1487.36 1175.4V1175.4C1435.75 1175.4 1393.92 1145.99 1393.92 1109.73V1061.97Z" stroke="#4484AB" stroke-width="13" stroke-linecap="round" stroke-linejoin="round"/>
</g>
</svg>
