<svg width="1140" height="784" viewBox="0 0 1140 784" fill="none" xmlns="http://www.w3.org/2000/svg">
<g clip-path="url(#clip0)">
<path opacity="0.1" d="M793.53 235.6C794.396 234.368 794.873 232.905 794.9 231.4C794.9 222.28 776.32 214.9 753.4 214.9C730.48 214.9 711.9 222.28 711.9 231.4C711.942 233.105 712.543 234.75 713.61 236.08C688.09 238.93 670.9 244.27 670.9 250.4C670.9 259.51 708.9 266.9 755.9 266.9C802.9 266.9 840.9 259.51 840.9 250.4C840.85 243.95 821.53 238.3 793.53 235.6Z" fill="#44EAFF"/>
<g opacity="0.2">
<path opacity="0.2" d="M910.079 713.82C909.72 716.424 909.576 719.053 909.649 721.68C927.076 721.96 944.579 722.547 962.159 723.44C962.279 722.76 962.399 722.05 962.499 721.34C963.626 714.011 962.78 706.514 960.049 699.62C956.429 690.79 949.679 684.48 941.229 683.27C932.779 682.06 924.539 686.21 918.589 693.62C914 699.473 911.062 706.448 910.079 713.82Z" fill="#3F3D56"/>
<path opacity="0.2" d="M968.578 679.448C971.302 660.501 961.775 643.454 947.299 641.373C932.824 639.292 918.881 652.966 916.157 671.913C913.434 690.86 922.961 707.907 937.436 709.988C951.912 712.069 965.855 698.396 968.578 679.448Z" fill="#3F3D56"/>
<path opacity="0.2" d="M974.602 637.524C977.325 618.576 967.798 601.529 953.323 599.449C938.847 597.368 924.904 611.041 922.181 629.988C919.457 648.936 928.984 665.983 943.46 668.063C957.935 670.144 971.878 656.471 974.602 637.524Z" fill="#3F3D56"/>
<path opacity="0.2" d="M980.626 595.589C983.35 576.642 973.823 559.595 959.347 557.514C944.871 555.433 930.929 569.106 928.205 588.054C925.481 607.001 935.008 624.048 949.484 626.129C963.96 628.21 977.903 614.537 980.626 595.589Z" fill="#3F3D56"/>
<path opacity="0.2" d="M986.652 553.654C989.375 534.707 979.848 517.66 965.372 515.579C950.897 513.499 936.954 527.172 934.23 546.119C931.507 565.067 941.034 582.113 955.509 584.194C969.985 586.275 983.928 572.602 986.652 553.654Z" fill="#3F3D56"/>
<path opacity="0.2" d="M1099.74 277.02C1103.97 272.961 1107.93 268.618 1111.57 264.02L1044.33 242.85L1118.73 254.11C1128.11 239.586 1134.43 223.301 1137.3 206.251C1140.17 189.201 1139.53 171.744 1135.42 154.95L1028.06 192.42L1129.93 137.95C1123.44 121.795 1113.69 107.15 1101.29 94.9269C1088.89 82.7036 1074.11 73.164 1057.86 66.9022C1041.62 60.6404 1024.26 57.7905 1006.86 58.53C989.466 59.2694 972.41 63.5825 956.754 71.2004C941.098 78.8183 927.179 89.5781 915.862 102.809C904.546 116.041 896.075 131.46 890.977 148.108C885.879 164.756 884.263 182.274 886.23 199.574C888.196 216.873 893.704 233.582 902.409 248.66C895.811 254.955 889.911 261.942 884.809 269.5L967.529 328.78L876.819 283.1C867.284 301.919 862.592 322.819 863.168 343.908C863.744 364.997 869.571 385.61 880.119 403.88C862.894 420.303 850.637 441.242 844.751 464.302C838.864 487.363 839.586 511.614 846.833 534.284C854.079 556.954 867.559 577.127 885.731 592.497C903.902 607.866 926.032 617.813 949.59 621.199C973.147 624.584 997.182 621.273 1018.95 611.642C1040.71 602.012 1059.33 586.451 1072.66 566.74C1086 547.029 1093.52 523.962 1094.37 500.177C1095.22 476.392 1089.35 452.849 1077.45 432.24C1098.03 412.613 1111.42 386.639 1115.46 358.489C1119.5 330.339 1113.97 301.647 1099.75 277.02H1099.74Z" fill="#44EAFF"/>
<path opacity="0.1" d="M864.4 322.41C860.307 350.561 865.843 379.269 880.11 403.88C862.884 420.303 850.627 441.242 844.741 464.302C838.854 487.363 839.576 511.614 846.823 534.284C854.07 556.954 867.549 577.127 885.721 592.497C903.892 607.867 926.022 617.813 949.58 621.199C973.138 624.584 997.173 621.273 1018.94 611.642C1040.7 602.012 1059.32 586.452 1072.65 566.74C1085.99 547.029 1093.51 523.962 1094.36 500.177C1095.21 476.392 1089.34 452.849 1077.44 432.24C1097.33 413.3 866.42 308.32 864.4 322.41Z" fill="black"/>
</g>
<g opacity="0.2">
<path opacity="0.2" d="M166.461 676.75C166.856 679.009 167.441 681.23 168.211 683.39C182.417 678.817 196.771 674.483 211.271 670.39C211.191 669.79 211.101 669.17 210.991 668.55C209.964 662.181 207.281 656.195 203.211 651.19C197.921 644.86 190.761 641.48 183.581 642.81C176.401 644.14 170.821 649.81 167.971 657.65C165.813 663.777 165.293 670.36 166.461 676.75V676.75Z" fill="#3F3D56"/>
<path opacity="0.2" d="M187.218 666.07C199.568 664.116 207.461 649.138 204.847 632.614C202.233 616.091 190.102 604.28 177.752 606.234C165.401 608.188 157.509 623.167 160.123 639.69C162.737 656.213 174.868 668.024 187.218 666.07Z" fill="#3F3D56"/>
<path opacity="0.2" d="M183.959 630.392C196.338 628.392 204.203 613.344 201.526 596.783C198.85 580.221 186.645 568.417 174.266 570.418C161.887 572.418 154.022 587.466 156.699 604.027C159.376 620.589 171.58 632.393 183.959 630.392Z" fill="#3F3D56"/>
<path opacity="0.2" d="M174.613 593.125C186.964 591.171 194.856 576.193 192.242 559.67C189.628 543.146 177.497 531.336 165.147 533.289C152.797 535.243 144.904 550.222 147.518 566.745C150.132 583.268 162.263 595.079 174.613 593.125Z" fill="#3F3D56"/>
<path opacity="0.2" d="M168.322 556.646C180.673 554.692 188.565 539.714 185.951 523.19C183.337 506.667 171.206 494.857 158.856 496.81C146.506 498.764 138.613 513.743 141.227 530.266C143.841 546.789 155.972 558.6 168.322 556.646Z" fill="#3F3D56"/>
<path opacity="0.2" d="M203.82 261.81C206.177 257.287 208.225 252.61 209.95 247.81L149.75 248.75L213.11 237.58C217.085 222.071 217.726 205.895 214.99 190.12C212.604 176.16 207.588 162.779 200.21 150.69L123.1 211.4L191.22 138.07C167.14 108.88 128.92 93.31 89.4803 100.57C30.5303 111.39 -8.73971 169.07 1.67029 229.37C5.77918 253.729 17.9162 276.014 36.1503 292.68C32.4636 299.733 29.5371 307.158 27.4203 314.83L110.34 341.24L24.5303 328.33C22.7428 340.295 22.8846 352.47 24.9503 364.39C29.0592 388.749 41.1962 411.034 59.4303 427.7C47.9191 449.724 43.993 474.929 48.2603 499.41C58.6703 559.72 114.86 599.81 173.77 588.96C232.68 578.11 271.99 520.44 261.58 460.13C257.467 435.775 245.331 413.495 227.1 396.83C238.609 374.802 242.535 349.595 238.27 325.11C234.165 300.759 222.04 278.479 203.82 261.81V261.81Z" fill="#44EAFF"/>
<path opacity="0.1" d="M24.9804 364.39C29.0893 388.749 41.2263 411.034 59.4604 427.7C47.9492 449.724 44.0231 474.929 48.2904 499.41C58.7004 559.72 114.89 599.81 173.8 588.96C232.71 578.11 272.02 520.44 261.61 460.13C257.497 435.776 245.361 413.495 227.13 396.83C238.22 375.61 22.8604 352.14 24.9804 364.39Z" fill="black"/>
</g>
<path d="M113.85 593.4C113.85 645.71 146.66 688.03 187.21 688.03Z" fill="#46455B"/>
<path d="M187.21 688.03C187.21 635.14 223.83 592.34 269.09 592.34Z" fill="#44EAFF"/>
<path d="M140.43 598.14C140.43 647.83 161.35 688.03 187.21 688.03Z" fill="#44EAFF"/>
<path d="M187.21 688.03C187.21 620.45 229.54 565.76 281.85 565.76Z" fill="#46455B"/>
<path opacity="0.1" d="M527.85 744.55C810.067 744.55 1038.85 736.943 1038.85 727.56C1038.85 718.177 810.067 710.57 527.85 710.57C245.632 710.57 16.8496 718.177 16.8496 727.56C16.8496 736.943 245.632 744.55 527.85 744.55Z" fill="#44EAFF"/>
<path opacity="0.1" d="M178.74 701.46C189.056 701.46 197.42 700.045 197.42 698.3C197.42 696.555 189.056 695.14 178.74 695.14C168.423 695.14 160.06 696.555 160.06 698.3C160.06 700.045 168.423 701.46 178.74 701.46Z" fill="#44EAFF"/>
<path d="M166.19 683.62C166.19 683.62 176.85 683.3 180.06 681.01C183.27 678.72 196.44 676.01 197.24 679.66C198.04 683.31 213.24 697.9 201.24 697.99C189.24 698.08 173.3 696.12 170.09 694.17C166.88 692.22 166.19 683.62 166.19 683.62Z" fill="#A8A8A8"/>
<path opacity="0.2" d="M201.44 696.72C189.44 696.81 173.49 694.84 170.29 692.89C167.85 691.41 166.87 686.07 166.55 683.61H166.19C166.19 683.61 166.87 692.21 170.07 694.16C173.27 696.11 189.2 698.08 201.22 697.98C204.69 697.98 205.89 696.72 205.83 694.89C205.35 696.01 204.02 696.7 201.44 696.72Z" fill="black"/>
<path d="M812.85 571.95C812.85 670.33 874.57 749.95 950.85 749.95Z" fill="#46455B"/>
<path d="M950.85 749.95C950.85 650.45 1019.72 569.95 1104.85 569.95Z" fill="#44EAFF"/>
<path d="M862.85 580.81C862.85 674.27 902.2 749.9 950.85 749.9Z" fill="#44EAFF"/>
<path d="M950.85 749.95C950.85 622.82 1030.46 519.95 1128.85 519.95Z" fill="#46455B"/>
<path opacity="0.1" d="M944.86 783.9C963.809 783.9 979.17 781.303 979.17 778.1C979.17 774.897 963.809 772.3 944.86 772.3C925.911 772.3 910.55 774.897 910.55 778.1C910.55 781.303 925.911 783.9 944.86 783.9Z" fill="#44EAFF"/>
<path d="M921.811 751.15C921.811 751.15 941.381 750.55 947.281 746.35C953.181 742.15 977.391 737.13 978.851 743.87C980.311 750.61 1008.26 777.37 986.171 777.55C964.081 777.73 934.83 774.11 928.94 770.55C923.05 766.99 921.811 751.15 921.811 751.15Z" fill="#A8A8A8"/>
<path opacity="0.2" d="M986.53 775.2C964.44 775.38 935.19 771.76 929.3 768.2C924.82 765.46 923.03 755.67 922.44 751.14H921.78C921.78 751.14 923.02 766.92 928.91 770.51C934.8 774.1 964.04 777.72 986.14 777.51C992.51 777.46 994.72 775.19 994.6 771.83C993.74 773.95 991.31 775.16 986.53 775.2Z" fill="black"/>
<path opacity="0.1" d="M815.53 36.5999C816.396 35.3678 816.873 33.9052 816.9 32.3999C816.9 23.2799 798.32 15.8999 775.4 15.8999C752.48 15.8999 733.9 23.2799 733.9 32.3999C733.919 34.0959 734.491 35.7393 735.53 37.0799C710.01 39.9299 692.82 45.2699 692.82 51.3999C692.82 60.5099 730.82 67.8999 777.82 67.8999C824.82 67.8999 862.82 60.5099 862.82 51.3999C862.85 44.9499 843.53 39.2999 815.53 36.5999Z" fill="#44EAFF"/>
<path opacity="0.1" d="M306.53 54.5999C307.396 53.3678 307.873 51.9052 307.9 50.3999C307.9 41.2799 289.32 33.8999 266.4 33.8999C243.48 33.8999 224.9 41.2799 224.9 50.3999C224.942 52.1052 225.543 53.7495 226.61 55.0799C201.09 57.9299 183.9 63.2699 183.9 69.3999C183.9 78.5099 221.95 85.8999 268.9 85.8999C315.85 85.8999 353.9 78.5099 353.9 69.3999C353.85 62.9499 334.53 57.2999 306.53 54.5999Z" fill="#44EAFF"/>
<path opacity="0.1" d="M598.27 40.74C600.6 39.39 603.75 40.68 605.35 42.86C606.95 45.04 607.35 47.86 607.8 50.48C608.69 56.4 609.34 63.19 605.35 67.64C611.87 47.87 630.62 32.73 651.35 30.52" stroke="#44EAFF" stroke-width="3" stroke-miterlimit="10"/>
<path opacity="0.1" d="M264.74 141.72C266.24 140.85 268.26 141.72 269.29 143.08C270.208 144.561 270.75 146.243 270.87 147.98C271.44 151.79 271.87 156.15 269.3 158.98C271.493 152.632 275.427 147.027 280.652 142.807C285.877 138.586 292.183 135.919 298.85 135.11" stroke="#44EAFF" stroke-width="3" stroke-miterlimit="10"/>
<path opacity="0.1" d="M714.74 171.72C716.24 170.85 718.26 171.72 719.29 173.08C720.207 174.561 720.75 176.243 720.87 177.98C721.44 181.79 721.87 186.15 719.3 188.98C721.493 182.632 725.427 177.027 730.652 172.807C735.876 168.586 742.183 165.919 748.85 165.11" stroke="#44EAFF" stroke-width="3" stroke-miterlimit="10"/>
<path opacity="0.1" d="M677.85 507.95V483.65L689.05 494.85L691.85 491.95L675.85 475.95L659.85 491.95L662.65 494.74L673.85 483.65V507.95H677.85Z" fill="#44EAFF"/>
<path opacity="0.1" d="M435.85 587.95V563.65L447.05 574.85L449.85 571.95L433.85 555.95L417.85 571.95L420.65 574.74L431.85 563.65V587.95H435.85Z" fill="#44EAFF"/>
<path opacity="0.1" d="M613.85 658.95V634.65L625.05 645.85L627.85 642.95L611.85 626.95L595.85 642.95L598.65 645.74L609.85 634.65V658.95H613.85Z" fill="#44EAFF"/>
</g>
<defs>
<clipPath id="clip0">
<rect width="1139.07" height="783.9" fill="white"/>
</clipPath>
</defs>
</svg>
