<svg width="45" height="45" viewBox="0 0 45 45" fill="none" xmlns="http://www.w3.org/2000/svg">
<path d="M8.87695 0H38.8477C39.2629 0.129869 39.7046 0.206909 40.0891 0.39841C41.6481 1.16882 42.3622 2.47741 42.3633 4.19431C42.3633 12.3907 42.3611 20.5867 42.3567 28.7824C42.3512 28.9256 42.3747 29.0684 42.4256 29.2023C42.4766 29.3362 42.5541 29.4584 42.6533 29.5616C43.6838 30.6898 44.4033 32.0675 44.7407 33.5589C44.8341 33.9705 44.9143 34.3854 45 34.7982V36.5591C44.933 36.9168 44.8759 37.2756 44.7968 37.63C43.808 42.0125 40.1276 44.9873 35.6385 44.9917C26.9418 45.0028 18.245 45.0028 9.54822 44.9917C9.14047 44.997 8.73391 44.9467 8.33972 44.8421C6.51599 44.3182 5.39648 42.8016 5.36682 40.8624C5.36023 40.4596 5.36682 40.0556 5.36682 39.6363C4.87573 39.6363 4.45166 39.6451 4.02869 39.6363C2.68506 39.5989 1.53809 39.1146 0.792114 37.9898C0.422974 37.4396 0.258179 36.7451 0 36.1189V35.2384C0.129639 34.8235 0.207642 34.3821 0.398804 33.9969C1.14258 32.4935 2.39502 31.7672 4.05725 31.7253C4.48792 31.7154 4.91968 31.7253 5.33936 31.7253V26.4503C4.8999 26.4503 4.47693 26.4503 4.05725 26.4503C2.70483 26.4271 1.54797 25.944 0.789917 24.8071C0.420776 24.2568 0.25708 23.5645 0 22.9361V22.0556C0.129639 21.6396 0.207642 21.1994 0.398804 20.8142C1.14258 19.3097 2.39502 18.5844 4.05725 18.5426C4.48792 18.5316 4.91968 18.5426 5.33936 18.5426V13.2686C4.8999 13.2686 4.47693 13.2752 4.05725 13.2686C2.70483 13.2455 1.54797 12.7623 0.789917 11.6265C0.420776 11.0762 0.25708 10.3829 0 9.75555V8.87508C0.0264384 8.82349 0.0474263 8.76926 0.0626221 8.7133C0.41748 6.84231 1.6875 5.62067 3.57825 5.40495C4.15063 5.33892 4.7373 5.39395 5.35913 5.39395C5.35913 4.89758 5.35913 4.47716 5.35913 4.05674C5.3822 2.70413 5.8667 1.54742 7.00708 0.789116C7.55969 0.420422 8.24963 0.256435 8.87695 0ZM39.7134 27.3087C39.7134 27.1987 39.7255 27.1293 39.7255 27.0567C39.7255 19.3988 39.7255 11.741 39.7255 4.08315C39.7275 3.92248 39.7083 3.76224 39.6683 3.6066C39.4849 2.94625 38.9861 2.63699 38.1423 2.63699H9.62732C9.52515 2.63699 9.42188 2.63699 9.3197 2.63699C8.56384 2.67111 8.02991 3.19609 8.00134 3.95109C7.98596 4.37481 8.01123 4.80073 7.99146 5.22446C7.97937 5.4941 8.07166 5.61846 8.32104 5.74173C9.7998 6.45601 10.6051 7.66114 10.6106 9.29661C10.6106 10.9475 9.80859 12.168 8.31226 12.89C8.05737 13.0133 7.98267 13.1442 7.98267 13.4128C7.99365 15.0813 7.99365 16.7505 7.98267 18.4204C7.98267 18.6714 8.05518 18.7968 8.29138 18.9102C9.79102 19.6267 10.6062 20.8384 10.6073 22.4926C10.6084 24.1467 9.79431 25.3541 8.30017 26.0783C8.06726 26.1883 7.98377 26.3083 7.98596 26.5647C7.99695 28.2046 8.00024 29.8445 7.98596 31.4843C7.98596 31.8145 8.06836 31.984 8.38696 32.1392C9.73169 32.7929 10.4908 33.9001 10.604 35.3815C10.7172 36.8629 10.1733 38.1615 8.88135 38.8912C8.08044 39.3436 7.89258 39.8509 7.99255 40.6389C7.99695 40.7266 7.99695 40.8144 7.99255 40.902C8.01892 41.7825 8.59241 42.3526 9.46912 42.3536C15.9569 42.3536 22.4443 42.3536 28.9314 42.3536C29.0347 42.3536 29.1379 42.3316 29.2764 42.3162C25.8212 38.7261 25.8981 33.7713 28.136 30.4861C30.2827 27.3461 34.853 25.1824 39.7134 27.3087ZM35.7759 29.0884C34.0298 29.0918 32.3562 29.7878 31.1209 31.024C29.8857 32.2602 29.1893 33.9361 29.1841 35.6852C29.1841 39.3513 32.1504 42.3515 35.7704 42.3548C39.3904 42.3581 42.3556 39.3601 42.3622 35.694C42.3593 33.9443 41.6647 32.267 40.4304 31.029C39.196 29.7911 37.5225 29.0933 35.7759 29.0884ZM5.31409 7.99792C4.85925 7.99792 4.40552 7.98581 3.95178 7.99792C3.19812 8.02433 2.63342 8.59554 2.64001 9.31862C2.6403 9.49113 2.67458 9.66188 2.74087 9.82109C2.80717 9.9803 2.90419 10.1248 3.02636 10.2464C3.14854 10.368 3.29346 10.4642 3.45283 10.5295C3.6122 10.5949 3.78288 10.6281 3.95508 10.6272C4.86255 10.6448 5.77039 10.6448 6.67859 10.6272C6.85157 10.6278 7.02295 10.594 7.1828 10.5277C7.34265 10.4615 7.48778 10.3641 7.6098 10.2413C7.73181 10.1184 7.82827 9.97257 7.8936 9.81211C7.95892 9.65165 7.99181 9.4798 7.99036 9.30651C7.99036 8.58673 7.42676 8.02103 6.672 7.99682C6.22156 7.98582 5.76782 7.99792 5.31409 7.99792ZM5.28662 23.8133C5.74146 23.8133 6.19519 23.8232 6.64893 23.8133C7.43005 23.7924 8.00244 23.2201 7.99475 22.4849C7.99303 22.312 7.95724 22.1411 7.88944 21.9821C7.82163 21.8231 7.72314 21.6791 7.59962 21.5583C7.47611 21.4376 7.32999 21.3424 7.16967 21.2784C7.00935 21.2143 6.83799 21.1826 6.66541 21.1851C5.77185 21.1697 4.87866 21.1697 3.98584 21.1851C3.20471 21.1983 2.63232 21.7772 2.64001 22.5135C2.64771 23.2322 3.21021 23.7902 3.96936 23.8133C4.40771 23.8232 4.84827 23.8122 5.28662 23.8133ZM5.28662 36.9938C5.74036 36.9938 6.19519 37.0037 6.64893 36.9938C7.43115 36.974 8.00354 36.4039 7.99695 35.6676C7.99537 35.4948 7.95976 35.324 7.89215 35.1651C7.82455 35.0061 7.72628 34.862 7.60298 34.7412C7.47968 34.6203 7.33378 34.525 7.17365 34.4608C7.01351 34.3965 6.84229 34.3646 6.6698 34.3667C5.77698 34.3499 4.88379 34.3499 3.99023 34.3667C3.20801 34.3788 2.63562 34.9555 2.64221 35.6874C2.6488 36.4193 3.22339 36.9751 4.01331 36.9916C4.43518 37.0026 4.86035 36.9949 5.28442 36.9938H5.28662Z" fill="#2D9CDB"/>
<path d="M17.2485 12.7236C18.6701 11.2929 20.0544 9.90724 21.4343 8.51501C21.8441 8.10229 22.3044 7.87667 22.8954 8.06817C23.0959 8.12806 23.2789 8.23578 23.4286 8.38207C23.5784 8.52837 23.6905 8.70888 23.7553 8.90812C23.8201 9.10736 23.8357 9.31938 23.8008 9.52599C23.7658 9.7326 23.6814 9.92763 23.5546 10.0943C23.4653 10.2116 23.3672 10.322 23.2613 10.4245C21.617 12.071 19.9716 13.716 18.3251 15.3595C17.588 16.0947 16.8815 16.0991 16.1531 15.376C15.2292 14.4581 14.3129 13.5326 13.3879 12.6158C12.9924 12.224 12.8111 11.7683 12.9638 11.2235C13.233 10.2616 14.392 9.95457 15.1457 10.6556C15.7357 11.2059 16.2894 11.787 16.8607 12.3549C16.9683 12.4617 17.0848 12.5684 17.2485 12.7236Z" fill="#2D9CDB"/>
<path d="M17.2486 23.2684C18.6702 21.8376 20.0545 20.452 21.4355 19.0598C21.8453 18.6471 22.3056 18.4225 22.8956 18.6129C23.0962 18.6728 23.2793 18.7805 23.4293 18.9269C23.5792 19.0732 23.6914 19.2539 23.7562 19.4533C23.821 19.6527 23.8366 19.8649 23.8015 20.0716C23.7664 20.2784 23.6817 20.4735 23.5547 20.6402C23.4657 20.7577 23.3676 20.8681 23.2614 20.9704C21.6244 22.6029 19.9864 24.2362 18.3472 25.8702C17.5705 26.6406 16.8806 26.6494 16.1126 25.8856C15.1996 24.9765 14.2933 24.0619 13.3792 23.155C12.9837 22.7632 12.8024 22.3087 12.9551 21.7628C13.2254 20.802 14.3834 20.4949 15.1381 21.196C15.7281 21.7463 16.2818 22.3285 16.8531 22.8953C16.9695 23.0076 17.086 23.1121 17.2486 23.2684Z" fill="#2D9CDB"/>
<path d="M17.2254 33.8342C18.6668 32.3858 20.0522 30.998 21.4321 29.6069C21.8419 29.1942 22.3011 28.9674 22.8922 29.1578C23.0926 29.2177 23.2756 29.3254 23.4254 29.4717C23.5751 29.618 23.6872 29.7985 23.7521 29.9978C23.8169 30.197 23.8325 30.409 23.7975 30.6157C23.7626 30.8223 23.6781 31.0173 23.5514 31.184C23.4501 31.3105 23.3399 31.4297 23.2218 31.5406C21.598 33.1665 19.9731 34.791 18.3471 36.414C17.5594 37.2009 16.8783 37.1965 16.0818 36.4019C15.16 35.4818 14.2339 34.5661 13.322 33.6361C12.8617 33.1684 12.7727 32.5894 13.0495 32.0667C13.3055 31.5725 13.846 31.2599 14.3998 31.3887C14.7207 31.4739 15.0152 31.6381 15.2567 31.8664C15.9225 32.4838 16.5432 33.1441 17.2254 33.8342Z" fill="#2D9CDB"/>
<path d="M31.8197 13.2685C30.5596 13.2685 29.3005 13.2685 28.0404 13.2685C27.145 13.2685 26.5485 12.7369 26.5463 11.9478C26.5441 11.1587 27.1417 10.6271 28.0349 10.6271C30.5544 10.6271 33.0736 10.6271 35.5924 10.6271C36.4878 10.6271 37.0844 11.1587 37.0866 11.9412C37.0888 12.7237 36.4911 13.2619 35.5979 13.2619C34.3389 13.2718 33.0787 13.2685 31.8197 13.2685Z" fill="#2D9CDB"/>
<path d="M31.8032 23.8142C30.5441 23.8142 29.284 23.8142 28.025 23.8142C27.1373 23.8142 26.5385 23.2639 26.5462 22.4836C26.5539 21.7132 27.145 21.1816 28.0063 21.1805C30.5412 21.1761 33.075 21.1761 35.6077 21.1805C36.4954 21.1805 37.0942 21.7308 37.0865 22.51C37.0788 23.2805 36.4877 23.8098 35.6264 23.8131C34.352 23.8175 33.0776 23.8142 31.8032 23.8142Z" fill="#2D9CDB"/>
<path d="M35.7628 35.6883C35.309 35.6883 34.9025 35.696 34.496 35.6883C33.7083 35.6696 33.1348 35.1182 33.1282 34.383C33.1216 33.6478 33.694 33.0711 34.4752 33.0623C35.3387 33.048 36.2022 33.0458 37.0657 33.0623C37.8425 33.0777 38.3841 33.6225 38.394 34.4039C38.4079 35.2668 38.4079 36.1296 38.394 36.9925C38.3797 37.7519 37.8183 38.3132 37.1009 38.3264C36.3648 38.3385 35.788 37.7673 35.765 36.9903C35.7529 36.5765 35.7628 36.167 35.7628 35.6883Z" fill="#2D9CDB"/>
</svg>
