<svg width="76" height="76" viewBox="0 0 76 76" fill="none" xmlns="http://www.w3.org/2000/svg">
<circle cx="38.1937" cy="37.5632" r="37.5" fill="#2D9CDB" fill-opacity="0.4"/>
<path d="M16.4842 49.0271C16.587 48.273 16.6395 47.3022 16.8664 46.3739C17.2016 45.0165 16.6786 44.0993 15.6304 43.3218C14.9633 42.8207 14.3288 42.2778 13.7307 41.6963C12.4791 40.492 12.3584 38.8866 13.3753 37.4812C13.9609 36.6701 14.5442 35.858 15.1387 35.0547C15.6338 34.3844 15.703 33.6772 15.3812 32.9142C15.0158 32.0473 14.6604 31.177 14.3051 30.3056C13.5597 28.4858 14.1687 26.8692 15.9344 25.9844C16.758 25.5711 17.576 25.1477 18.4096 24.7555C19.3159 24.3288 19.6813 23.5926 19.7428 22.6329C19.8042 21.6733 19.8456 20.7047 19.9976 19.7551C20.2926 17.8972 21.7587 16.8583 23.7423 17.0024C24.5581 17.0627 25.3761 17.0683 26.193 17.104C27.1171 17.1443 27.7574 16.7242 28.2525 15.9578C28.8917 14.9613 29.4996 13.929 30.264 13.0353C31.1993 11.9416 32.7225 11.7874 33.9707 12.489C34.7775 12.9437 35.5967 13.3828 36.3811 13.8676C37.2751 14.4262 38.1222 14.4329 39.0218 13.8732C39.8387 13.3671 40.6846 12.9057 41.5384 12.4633C42.9911 11.7081 44.6171 12.1148 45.5513 13.4688C46.1167 14.291 46.6397 15.1445 47.175 15.9869C47.66 16.7488 48.3216 17.1543 49.2491 17.104C50.1956 17.0538 51.1432 17.0147 52.0909 17.0035C54.0353 16.9789 55.3685 18.2994 55.4567 20.2343C55.5037 21.2487 55.6434 22.2609 55.7752 23.2697C55.8624 23.9478 56.3016 24.3947 56.8927 24.693C57.7957 25.1532 58.7098 25.5867 59.6172 26.0436C61.1817 26.8256 61.8209 28.4947 61.1705 30.1347C60.8095 31.043 60.4396 31.9479 60.053 32.8461C59.7177 33.6214 59.7569 34.3442 60.2653 35.0357C60.8241 35.7965 61.3415 36.5897 61.9282 37.3281C63.0926 38.795 62.9205 40.6875 61.5069 41.8895C60.7715 42.5152 60.0541 43.1653 59.2897 43.7519C58.4449 44.4009 58.3779 45.2466 58.5075 46.194C58.6617 47.3112 58.8584 48.4283 58.8953 49.5455C58.9377 50.8358 57.9532 52.0223 56.6927 52.344C55.687 52.5976 54.6812 52.7998 53.6755 53.0143C52.7994 53.2031 52.1646 53.6567 51.8763 54.5437C51.588 55.4307 51.2773 56.2831 50.9823 57.1557C50.3532 59.0236 48.8233 59.8547 46.9191 59.3487C45.9938 59.1029 45.0708 58.8493 44.1522 58.58C43.3442 58.3432 42.6536 58.5532 42.0569 59.104C41.3193 59.7855 40.6041 60.4859 39.87 61.1763C39.2944 61.7428 38.5192 62.0603 37.7115 62.0603C36.9039 62.0603 36.1286 61.7428 35.5531 61.1763C34.8245 60.4859 34.1003 59.7855 33.3673 59.1051C32.7705 58.5543 32.081 58.3454 31.2708 58.5789C30.2807 58.8638 29.2862 59.1375 28.286 59.3855C26.6221 59.7989 25.1414 59.0224 24.5435 57.4182C24.1837 56.453 23.8596 55.4743 23.53 54.499C23.2472 53.6634 22.636 53.2098 21.8113 53.0233C20.8949 52.8177 19.9708 52.6434 19.0522 52.4434C17.4508 52.0993 16.4395 50.8291 16.4842 49.0271ZM37.7255 20.7639C28.7598 20.7695 21.4391 27.9707 21.3967 36.9762C21.3773 41.3 23.0768 45.4544 26.1213 48.5255C29.1658 51.5966 33.306 53.3328 37.6311 53.3523C41.9561 53.3717 46.1117 51.6727 49.1837 48.629C52.2557 45.5854 53.9924 41.4464 54.0118 37.1226C54.0476 28.1003 46.7135 20.7639 37.7255 20.7639Z" fill="#2D9CDB"/>
<path d="M37.702 23.4797C35.0129 23.4797 32.3841 24.2769 30.1482 25.7705C27.9122 27.2641 26.1695 29.3869 25.1405 31.8707C24.1114 34.3544 23.8421 37.0874 24.3667 39.7241C24.8914 42.3608 26.1863 44.7828 28.0878 46.6837C29.9893 48.5847 32.412 49.8793 35.0495 50.4037C37.6869 50.9282 40.4208 50.659 42.9052 49.6302C45.3896 48.6015 47.5131 46.8593 49.0071 44.624C50.5011 42.3887 51.2986 39.7607 51.2986 37.0723C51.2971 33.4678 49.8641 30.0113 47.3146 27.4625C44.7651 24.9138 41.3076 23.4812 37.702 23.4797ZM37.702 47.9457C35.5508 47.9457 33.448 47.308 31.6593 46.1132C29.8707 44.9184 28.4766 43.2203 27.6534 41.2334C26.8302 39.2465 26.6148 37.0603 27.0344 34.951C27.4541 32.8418 28.49 30.9043 30.0111 29.3837C31.5322 27.863 33.4703 26.8274 35.5801 26.4079C37.69 25.9883 39.8769 26.2036 41.8643 27.0266C43.8517 27.8496 45.5504 29.2433 46.7456 31.0314C47.9407 32.8195 48.5786 34.9218 48.5786 37.0723C48.5747 39.955 47.4276 42.7184 45.3887 44.7567C43.3498 46.7951 40.5855 47.9419 37.702 47.9457ZM43.9421 31.0642L34.9832 40.0217L31.4608 36.5149L29.5443 38.4286L34.9832 43.8647L45.8597 32.9913L43.9421 31.0642Z" fill="#2D9CDB"/>
</svg>
