<svg width="100" height="100" viewBox="0 0 100 100" fill="none" xmlns="http://www.w3.org/2000/svg">
<path d="M69.1247 31.5833L41.6663 59.0417L26.708 44.125L20.833 50L41.6663 70.8333L74.9997 37.5L69.1247 31.5833ZM49.9997 8.33334C26.9997 8.33334 8.33301 27 8.33301 50C8.33301 73 26.9997 91.6667 49.9997 91.6667C72.9997 91.6667 91.6663 73 91.6663 50C91.6663 27 72.9997 8.33334 49.9997 8.33334ZM49.9997 83.3333C31.583 83.3333 16.6663 68.4167 16.6663 50C16.6663 31.5833 31.583 16.6667 49.9997 16.6667C68.4163 16.6667 83.333 31.5833 83.333 50C83.333 68.4167 68.4163 83.3333 49.9997 83.3333Z" fill="url(#paint0_linear)"/>
<defs>
<linearGradient id="paint0_linear" x1="49.9997" y1="8.33334" x2="49.9997" y2="91.6667" gradientUnits="userSpaceOnUse">
<stop stop-color="#44EAFF"/>
<stop offset="1" stop-color="#2D9CDB"/>
</linearGradient>
</defs>
</svg>
