<svg width="45" height="45" viewBox="0 0 45 45" fill="none" xmlns="http://www.w3.org/2000/svg">
<path d="M20.7038 36H25.0972V31.5H20.7038V36ZM22.9005 0C10.7748 0 0.933655 10.08 0.933655 22.5C0.933655 34.92 10.7748 45 22.9005 45C35.0262 45 44.8673 34.92 44.8673 22.5C44.8673 10.08 35.0262 0 22.9005 0ZM22.9005 40.5C13.2131 40.5 5.32702 32.4225 5.32702 22.5C5.32702 12.5775 13.2131 4.5 22.9005 4.5C32.5878 4.5 40.4739 12.5775 40.4739 22.5C40.4739 32.4225 32.5878 40.5 22.9005 40.5ZM22.9005 9C18.0458 9 14.1137 13.0275 14.1137 18H18.5071C18.5071 15.525 20.4841 13.5 22.9005 13.5C25.3168 13.5 27.2938 15.525 27.2938 18C27.2938 22.5 20.7038 21.9375 20.7038 29.25H25.0972C25.0972 24.1875 31.6872 23.625 31.6872 18C31.6872 13.0275 27.7551 9 22.9005 9Z" fill="#2D9CDB"/>
</svg>
