<svg xmlns="http://www.w3.org/2000/svg" version="1.1" xmlns:xlink="http://www.w3.org/1999/xlink" xmlns:svgjs="http://svgjs.com/svgjs" width="1440" height="1024" preserveAspectRatio="none" viewBox="0 0 1440 1024"><g mask="url(&quot;#SvgjsMask1004&quot;)" fill="none"><rect width="1440" height="1024" x="0" y="0" fill="#0e2a47"></rect><path d="M42.19 882.14L107.14 919.64L107.14 994.64L42.19 1032.14L-22.76 994.64L-22.76 919.64zM172.1 657.14L237.05 694.64L237.05 769.64L172.1 807.14L107.14 769.64L107.14 694.64zM366.96 994.64L431.91 1032.14L431.91 1107.14L366.96 1144.64L302 1107.14L302 1032.14zM431.91 207.14L496.87 244.64L496.87 319.64L431.91 357.14L366.96 319.64L366.96 244.64zM561.82 -17.86L626.77 19.64L626.77 94.64L561.82 132.14L496.87 94.64L496.87 19.64zM626.77 319.64L691.73 357.14L691.73 432.14L626.77 469.64L561.82 432.14L561.82 357.14zM561.82 657.14L626.77 694.64L626.77 769.64L561.82 807.14L496.87 769.64L496.87 694.64zM821.63 207.14L886.59 244.64L886.59 319.64L821.63 357.14L756.68 319.64L756.68 244.64zM821.63 657.14L886.59 694.64L886.59 769.64L821.63 807.14L756.68 769.64L756.68 694.64zM1081.45 207.14L1146.4 244.64L1146.4 319.64L1081.45 357.14L1016.5 319.64L1016.5 244.64zM1536.13 994.64L1601.08 1032.14L1601.08 1107.14L1536.13 1144.64L1471.17 1107.14L1471.17 1032.14z" stroke="rgba(9, 31, 44, 1)" stroke-width="2"></path><path d="M34.69 882.14 a7.5 7.5 0 1 0 15 0 a7.5 7.5 0 1 0 -15 0zM99.64 919.64 a7.5 7.5 0 1 0 15 0 a7.5 7.5 0 1 0 -15 0zM99.64 994.64 a7.5 7.5 0 1 0 15 0 a7.5 7.5 0 1 0 -15 0zM34.69 1032.14 a7.5 7.5 0 1 0 15 0 a7.5 7.5 0 1 0 -15 0zM-30.26 994.64 a7.5 7.5 0 1 0 15 0 a7.5 7.5 0 1 0 -15 0zM-30.26 919.64 a7.5 7.5 0 1 0 15 0 a7.5 7.5 0 1 0 -15 0zM164.6 657.14 a7.5 7.5 0 1 0 15 0 a7.5 7.5 0 1 0 -15 0zM229.55 694.64 a7.5 7.5 0 1 0 15 0 a7.5 7.5 0 1 0 -15 0zM229.55 769.64 a7.5 7.5 0 1 0 15 0 a7.5 7.5 0 1 0 -15 0zM164.6 807.14 a7.5 7.5 0 1 0 15 0 a7.5 7.5 0 1 0 -15 0zM99.64 769.64 a7.5 7.5 0 1 0 15 0 a7.5 7.5 0 1 0 -15 0zM99.64 694.64 a7.5 7.5 0 1 0 15 0 a7.5 7.5 0 1 0 -15 0zM359.46 994.64 a7.5 7.5 0 1 0 15 0 a7.5 7.5 0 1 0 -15 0zM424.41 1032.14 a7.5 7.5 0 1 0 15 0 a7.5 7.5 0 1 0 -15 0zM424.41 1107.14 a7.5 7.5 0 1 0 15 0 a7.5 7.5 0 1 0 -15 0zM359.46 1144.64 a7.5 7.5 0 1 0 15 0 a7.5 7.5 0 1 0 -15 0zM294.5 1107.14 a7.5 7.5 0 1 0 15 0 a7.5 7.5 0 1 0 -15 0zM294.5 1032.14 a7.5 7.5 0 1 0 15 0 a7.5 7.5 0 1 0 -15 0zM424.41 207.14 a7.5 7.5 0 1 0 15 0 a7.5 7.5 0 1 0 -15 0zM489.37 244.64 a7.5 7.5 0 1 0 15 0 a7.5 7.5 0 1 0 -15 0zM489.37 319.64 a7.5 7.5 0 1 0 15 0 a7.5 7.5 0 1 0 -15 0zM424.41 357.14 a7.5 7.5 0 1 0 15 0 a7.5 7.5 0 1 0 -15 0zM359.46 319.64 a7.5 7.5 0 1 0 15 0 a7.5 7.5 0 1 0 -15 0zM359.46 244.64 a7.5 7.5 0 1 0 15 0 a7.5 7.5 0 1 0 -15 0zM554.32 -17.86 a7.5 7.5 0 1 0 15 0 a7.5 7.5 0 1 0 -15 0zM619.27 19.64 a7.5 7.5 0 1 0 15 0 a7.5 7.5 0 1 0 -15 0zM619.27 94.64 a7.5 7.5 0 1 0 15 0 a7.5 7.5 0 1 0 -15 0zM554.32 132.14 a7.5 7.5 0 1 0 15 0 a7.5 7.5 0 1 0 -15 0zM489.37 94.64 a7.5 7.5 0 1 0 15 0 a7.5 7.5 0 1 0 -15 0zM489.37 19.64 a7.5 7.5 0 1 0 15 0 a7.5 7.5 0 1 0 -15 0zM619.27 319.64 a7.5 7.5 0 1 0 15 0 a7.5 7.5 0 1 0 -15 0zM684.23 357.14 a7.5 7.5 0 1 0 15 0 a7.5 7.5 0 1 0 -15 0zM684.23 432.14 a7.5 7.5 0 1 0 15 0 a7.5 7.5 0 1 0 -15 0zM619.27 469.64 a7.5 7.5 0 1 0 15 0 a7.5 7.5 0 1 0 -15 0zM554.32 432.14 a7.5 7.5 0 1 0 15 0 a7.5 7.5 0 1 0 -15 0zM554.32 357.14 a7.5 7.5 0 1 0 15 0 a7.5 7.5 0 1 0 -15 0zM554.32 657.14 a7.5 7.5 0 1 0 15 0 a7.5 7.5 0 1 0 -15 0zM619.27 694.64 a7.5 7.5 0 1 0 15 0 a7.5 7.5 0 1 0 -15 0zM619.27 769.64 a7.5 7.5 0 1 0 15 0 a7.5 7.5 0 1 0 -15 0zM554.32 807.14 a7.5 7.5 0 1 0 15 0 a7.5 7.5 0 1 0 -15 0zM489.37 769.64 a7.5 7.5 0 1 0 15 0 a7.5 7.5 0 1 0 -15 0zM489.37 694.64 a7.5 7.5 0 1 0 15 0 a7.5 7.5 0 1 0 -15 0zM814.13 207.14 a7.5 7.5 0 1 0 15 0 a7.5 7.5 0 1 0 -15 0zM879.09 244.64 a7.5 7.5 0 1 0 15 0 a7.5 7.5 0 1 0 -15 0zM879.09 319.64 a7.5 7.5 0 1 0 15 0 a7.5 7.5 0 1 0 -15 0zM814.13 357.14 a7.5 7.5 0 1 0 15 0 a7.5 7.5 0 1 0 -15 0zM749.18 319.64 a7.5 7.5 0 1 0 15 0 a7.5 7.5 0 1 0 -15 0zM749.18 244.64 a7.5 7.5 0 1 0 15 0 a7.5 7.5 0 1 0 -15 0zM814.13 657.14 a7.5 7.5 0 1 0 15 0 a7.5 7.5 0 1 0 -15 0zM879.09 694.64 a7.5 7.5 0 1 0 15 0 a7.5 7.5 0 1 0 -15 0zM879.09 769.64 a7.5 7.5 0 1 0 15 0 a7.5 7.5 0 1 0 -15 0zM814.13 807.14 a7.5 7.5 0 1 0 15 0 a7.5 7.5 0 1 0 -15 0zM749.18 769.64 a7.5 7.5 0 1 0 15 0 a7.5 7.5 0 1 0 -15 0zM749.18 694.64 a7.5 7.5 0 1 0 15 0 a7.5 7.5 0 1 0 -15 0zM1073.95 207.14 a7.5 7.5 0 1 0 15 0 a7.5 7.5 0 1 0 -15 0zM1138.9 244.64 a7.5 7.5 0 1 0 15 0 a7.5 7.5 0 1 0 -15 0zM1138.9 319.64 a7.5 7.5 0 1 0 15 0 a7.5 7.5 0 1 0 -15 0zM1073.95 357.14 a7.5 7.5 0 1 0 15 0 a7.5 7.5 0 1 0 -15 0zM1009 319.64 a7.5 7.5 0 1 0 15 0 a7.5 7.5 0 1 0 -15 0zM1009 244.64 a7.5 7.5 0 1 0 15 0 a7.5 7.5 0 1 0 -15 0zM1528.63 994.64 a7.5 7.5 0 1 0 15 0 a7.5 7.5 0 1 0 -15 0zM1593.58 1032.14 a7.5 7.5 0 1 0 15 0 a7.5 7.5 0 1 0 -15 0zM1593.58 1107.14 a7.5 7.5 0 1 0 15 0 a7.5 7.5 0 1 0 -15 0zM1528.63 1144.64 a7.5 7.5 0 1 0 15 0 a7.5 7.5 0 1 0 -15 0zM1463.67 1107.14 a7.5 7.5 0 1 0 15 0 a7.5 7.5 0 1 0 -15 0zM1463.67 1032.14 a7.5 7.5 0 1 0 15 0 a7.5 7.5 0 1 0 -15 0z" fill="rgba(9, 31, 44, 1)"></path><path d="M30.33 -11.91L71.03 11.59L71.03 58.59L30.33 82.09L-10.37 58.59L-10.37 11.59zM71.03 58.59L111.74 82.09L111.74 129.09L71.03 152.59L30.33 129.09L30.33 82.09zM30.33 129.09L71.03 152.59L71.03 199.59L30.33 223.09L-10.37 199.59L-10.37 152.59zM71.03 199.59L111.74 223.09L111.74 270.09L71.03 293.59L30.33 270.09L30.33 223.09zM71.03 481.59L111.74 505.09L111.74 552.09L71.03 575.59L30.33 552.09L30.33 505.09zM30.33 552.09L71.03 575.59L71.03 622.59L30.33 646.09L-10.37 622.59L-10.37 575.59zM30.33 975.09L71.03 998.59L71.03 1045.59L30.33 1069.09L-10.37 1045.59L-10.37 998.59zM152.44 199.59L193.15 223.09L193.15 270.09L152.44 293.59L111.74 270.09L111.74 223.09zM111.74 270.09L152.44 293.59L152.44 340.59L111.74 364.09L71.03 340.59L71.03 293.59zM111.74 411.09L152.44 434.59L152.44 481.59L111.74 505.09L71.03 481.59L71.03 434.59zM111.74 552.09L152.44 575.59L152.44 622.59L111.74 646.09L71.03 622.59L71.03 575.59zM152.44 763.59L193.15 787.09L193.15 834.09L152.44 857.59L111.74 834.09L111.74 787.09zM111.74 975.09L152.44 998.59L152.44 1045.59L111.74 1069.09L71.03 1045.59L71.03 998.59zM152.44 1045.59L193.15 1069.09L193.15 1116.09L152.44 1139.59L111.74 1116.09L111.74 1069.09zM233.85 481.59L274.56 505.09L274.56 552.09L233.85 575.59L193.15 552.09L193.15 505.09zM193.15 693.09L233.85 716.59L233.85 763.59L193.15 787.09L152.44 763.59L152.44 716.59zM193.15 834.09L233.85 857.59L233.85 904.59L193.15 928.09L152.44 904.59L152.44 857.59zM315.26 58.59L355.96 82.09L355.96 129.09L315.26 152.59L274.56 129.09L274.56 82.09zM274.56 270.09L315.26 293.59L315.26 340.59L274.56 364.09L233.85 340.59L233.85 293.59zM315.26 481.59L355.96 505.09L355.96 552.09L315.26 575.59L274.56 552.09L274.56 505.09zM274.56 552.09L315.26 575.59L315.26 622.59L274.56 646.09L233.85 622.59L233.85 575.59zM274.56 834.09L315.26 857.59L315.26 904.59L274.56 928.09L233.85 904.59L233.85 857.59zM315.26 904.59L355.96 928.09L355.96 975.09L315.26 998.59L274.56 975.09L274.56 928.09zM274.56 975.09L315.26 998.59L315.26 1045.59L274.56 1069.09L233.85 1045.59L233.85 998.59zM396.67 58.59L437.37 82.09L437.37 129.09L396.67 152.59L355.96 129.09L355.96 82.09zM355.96 552.09L396.67 575.59L396.67 622.59L355.96 646.09L315.26 622.59L315.26 575.59zM396.67 622.59L437.37 646.09L437.37 693.09L396.67 716.59L355.96 693.09L355.96 646.09zM396.67 763.59L437.37 787.09L437.37 834.09L396.67 857.59L355.96 834.09L355.96 787.09zM478.08 58.59L518.78 82.09L518.78 129.09L478.08 152.59L437.37 129.09L437.37 82.09zM478.08 481.59L518.78 505.09L518.78 552.09L478.08 575.59L437.37 552.09L437.37 505.09zM478.08 763.59L518.78 787.09L518.78 834.09L478.08 857.59L437.37 834.09L437.37 787.09zM437.37 834.09L478.08 857.59L478.08 904.59L437.37 928.09L396.67 904.59L396.67 857.59zM518.78 -11.91L559.49 11.59L559.49 58.59L518.78 82.09L478.08 58.59L478.08 11.59zM559.49 58.59L600.19 82.09L600.19 129.09L559.49 152.59L518.78 129.09L518.78 82.09zM518.78 270.09L559.49 293.59L559.49 340.59L518.78 364.09L478.08 340.59L478.08 293.59zM559.49 340.59L600.19 364.09L600.19 411.09L559.49 434.59L518.78 411.09L518.78 364.09zM518.78 411.09L559.49 434.59L559.49 481.59L518.78 505.09L478.08 481.59L478.08 434.59zM559.49 622.59L600.19 646.09L600.19 693.09L559.49 716.59L518.78 693.09L518.78 646.09zM518.78 693.09L559.49 716.59L559.49 763.59L518.78 787.09L478.08 763.59L478.08 716.59zM559.49 763.59L600.19 787.09L600.19 834.09L559.49 857.59L518.78 834.09L518.78 787.09zM559.49 904.59L600.19 928.09L600.19 975.09L559.49 998.59L518.78 975.09L518.78 928.09zM640.9 58.59L681.6 82.09L681.6 129.09L640.9 152.59L600.19 129.09L600.19 82.09zM640.9 199.59L681.6 223.09L681.6 270.09L640.9 293.59L600.19 270.09L600.19 223.09zM600.19 411.09L640.9 434.59L640.9 481.59L600.19 505.09L559.49 481.59L559.49 434.59zM640.9 763.59L681.6 787.09L681.6 834.09L640.9 857.59L600.19 834.09L600.19 787.09zM600.19 834.09L640.9 857.59L640.9 904.59L600.19 928.09L559.49 904.59L559.49 857.59zM640.9 904.59L681.6 928.09L681.6 975.09L640.9 998.59L600.19 975.09L600.19 928.09zM600.19 975.09L640.9 998.59L640.9 1045.59L600.19 1069.09L559.49 1045.59L559.49 998.59zM681.6 -11.91L722.3 11.59L722.3 58.59L681.6 82.09L640.9 58.59L640.9 11.59zM681.6 129.09L722.3 152.59L722.3 199.59L681.6 223.09L640.9 199.59L640.9 152.59zM722.3 199.59L763.01 223.09L763.01 270.09L722.3 293.59L681.6 270.09L681.6 223.09zM681.6 693.09L722.3 716.59L722.3 763.59L681.6 787.09L640.9 763.59L640.9 716.59zM722.3 763.59L763.01 787.09L763.01 834.09L722.3 857.59L681.6 834.09L681.6 787.09zM803.71 58.59L844.42 82.09L844.42 129.09L803.71 152.59L763.01 129.09L763.01 82.09zM803.71 199.59L844.42 223.09L844.42 270.09L803.71 293.59L763.01 270.09L763.01 223.09zM763.01 270.09L803.71 293.59L803.71 340.59L763.01 364.09L722.3 340.59L722.3 293.59zM803.71 481.59L844.42 505.09L844.42 552.09L803.71 575.59L763.01 552.09L763.01 505.09zM763.01 552.09L803.71 575.59L803.71 622.59L763.01 646.09L722.3 622.59L722.3 575.59zM763.01 693.09L803.71 716.59L803.71 763.59L763.01 787.09L722.3 763.59L722.3 716.59zM803.71 763.59L844.42 787.09L844.42 834.09L803.71 857.59L763.01 834.09L763.01 787.09zM763.01 834.09L803.71 857.59L803.71 904.59L763.01 928.09L722.3 904.59L722.3 857.59zM803.71 904.59L844.42 928.09L844.42 975.09L803.71 998.59L763.01 975.09L763.01 928.09zM885.12 58.59L925.83 82.09L925.83 129.09L885.12 152.59L844.42 129.09L844.42 82.09zM885.12 199.59L925.83 223.09L925.83 270.09L885.12 293.59L844.42 270.09L844.42 223.09zM844.42 552.09L885.12 575.59L885.12 622.59L844.42 646.09L803.71 622.59L803.71 575.59zM885.12 622.59L925.83 646.09L925.83 693.09L885.12 716.59L844.42 693.09L844.42 646.09zM885.12 763.59L925.83 787.09L925.83 834.09L885.12 857.59L844.42 834.09L844.42 787.09zM844.42 834.09L885.12 857.59L885.12 904.59L844.42 928.09L803.71 904.59L803.71 857.59zM885.12 904.59L925.83 928.09L925.83 975.09L885.12 998.59L844.42 975.09L844.42 928.09zM966.53 199.59L1007.23 223.09L1007.23 270.09L966.53 293.59L925.83 270.09L925.83 223.09zM966.53 340.59L1007.23 364.09L1007.23 411.09L966.53 434.59L925.83 411.09L925.83 364.09zM966.53 481.59L1007.23 505.09L1007.23 552.09L966.53 575.59L925.83 552.09L925.83 505.09zM925.83 552.09L966.53 575.59L966.53 622.59L925.83 646.09L885.12 622.59L885.12 575.59zM925.83 975.09L966.53 998.59L966.53 1045.59L925.83 1069.09L885.12 1045.59L885.12 998.59zM1007.23 -11.91L1047.94 11.59L1047.94 58.59L1007.23 82.09L966.53 58.59L966.53 11.59zM1007.23 129.09L1047.94 152.59L1047.94 199.59L1007.23 223.09L966.53 199.59L966.53 152.59zM1007.23 552.09L1047.94 575.59L1047.94 622.59L1007.23 646.09L966.53 622.59L966.53 575.59zM1047.94 622.59L1088.64 646.09L1088.64 693.09L1047.94 716.59L1007.23 693.09L1007.23 646.09zM1047.94 1045.59L1088.64 1069.09L1088.64 1116.09L1047.94 1139.59L1007.23 1116.09L1007.23 1069.09zM1088.64 129.09L1129.35 152.59L1129.35 199.59L1088.64 223.09L1047.94 199.59L1047.94 152.59zM1129.35 340.59L1170.05 364.09L1170.05 411.09L1129.35 434.59L1088.64 411.09L1088.64 364.09zM1088.64 552.09L1129.35 575.59L1129.35 622.59L1088.64 646.09L1047.94 622.59L1047.94 575.59zM1129.35 904.59L1170.05 928.09L1170.05 975.09L1129.35 998.59L1088.64 975.09L1088.64 928.09zM1088.64 975.09L1129.35 998.59L1129.35 1045.59L1088.64 1069.09L1047.94 1045.59L1047.94 998.59zM1170.05 -11.91L1210.76 11.59L1210.76 58.59L1170.05 82.09L1129.35 58.59L1129.35 11.59zM1210.76 58.59L1251.46 82.09L1251.46 129.09L1210.76 152.59L1170.05 129.09L1170.05 82.09zM1170.05 129.09L1210.76 152.59L1210.76 199.59L1170.05 223.09L1129.35 199.59L1129.35 152.59zM1210.76 481.59L1251.46 505.09L1251.46 552.09L1210.76 575.59L1170.05 552.09L1170.05 505.09zM1170.05 975.09L1210.76 998.59L1210.76 1045.59L1170.05 1069.09L1129.35 1045.59L1129.35 998.59zM1292.16 58.59L1332.87 82.09L1332.87 129.09L1292.16 152.59L1251.46 129.09L1251.46 82.09zM1251.46 129.09L1292.16 152.59L1292.16 199.59L1251.46 223.09L1210.76 199.59L1210.76 152.59zM1292.16 340.59L1332.87 364.09L1332.87 411.09L1292.16 434.59L1251.46 411.09L1251.46 364.09zM1251.46 411.09L1292.16 434.59L1292.16 481.59L1251.46 505.09L1210.76 481.59L1210.76 434.59zM1251.46 834.09L1292.16 857.59L1292.16 904.59L1251.46 928.09L1210.76 904.59L1210.76 857.59zM1292.16 904.59L1332.87 928.09L1332.87 975.09L1292.16 998.59L1251.46 975.09L1251.46 928.09zM1292.16 1045.59L1332.87 1069.09L1332.87 1116.09L1292.16 1139.59L1251.46 1116.09L1251.46 1069.09zM1332.87 129.09L1373.57 152.59L1373.57 199.59L1332.87 223.09L1292.16 199.59L1292.16 152.59zM1373.57 340.59L1414.28 364.09L1414.28 411.09L1373.57 434.59L1332.87 411.09L1332.87 364.09zM1373.57 481.59L1414.28 505.09L1414.28 552.09L1373.57 575.59L1332.87 552.09L1332.87 505.09zM1332.87 834.09L1373.57 857.59L1373.57 904.59L1332.87 928.09L1292.16 904.59L1292.16 857.59zM1332.87 975.09L1373.57 998.59L1373.57 1045.59L1332.87 1069.09L1292.16 1045.59L1292.16 998.59zM1454.98 58.59L1495.69 82.09L1495.69 129.09L1454.98 152.59L1414.28 129.09L1414.28 82.09zM1454.98 199.59L1495.69 223.09L1495.69 270.09L1454.98 293.59L1414.28 270.09L1414.28 223.09zM1414.28 552.09L1454.98 575.59L1454.98 622.59L1414.28 646.09L1373.57 622.59L1373.57 575.59zM1414.28 693.09L1454.98 716.59L1454.98 763.59L1414.28 787.09L1373.57 763.59L1373.57 716.59zM1414.28 834.09L1454.98 857.59L1454.98 904.59L1414.28 928.09L1373.57 904.59L1373.57 857.59zM1454.98 1045.59L1495.69 1069.09L1495.69 1116.09L1454.98 1139.59L1414.28 1116.09L1414.28 1069.09z" stroke="rgba(68, 234, 255, 1)" stroke-width="2"></path></g><defs><mask id="SvgjsMask1004"><rect width="1440" height="1024" fill="#ffffff"></rect></mask></defs></svg>