<svg width="45" height="45" viewBox="0 0 45 45" fill="none" xmlns="http://www.w3.org/2000/svg">
<path d="M35.625 26.25V11.25C35.625 9.1875 33.9375 7.5 31.875 7.5H5.625C3.5625 7.5 1.875 9.1875 1.875 11.25V26.25C1.875 28.3125 3.5625 30 5.625 30H31.875C33.9375 30 35.625 28.3125 35.625 26.25ZM31.875 26.25H5.625V11.25H31.875V26.25ZM18.75 13.125C15.6375 13.125 13.125 15.6375 13.125 18.75C13.125 21.8625 15.6375 24.375 18.75 24.375C21.8625 24.375 24.375 21.8625 24.375 18.75C24.375 15.6375 21.8625 13.125 18.75 13.125ZM43.125 13.125V33.75C43.125 35.8125 41.4375 37.5 39.375 37.5H7.5C7.5 35.625 7.5 35.8125 7.5 33.75H39.375V13.125C41.4375 13.125 41.25 13.125 43.125 13.125Z" fill="#2D9CDB"/>
</svg>
